<?xml version="1.0" encoding="UTF-8"?>
                    <svg xmlns="http://www.w3.org/2000/svg" version="2.0">
<text x="10" y="20" font-size="20" fill="black">Senda del Oso:</text>
<g transform="translate(0,30)">
<circle cx="10" cy="150.3557616" r="3" fill="red"/>
<text x="10" y="130.3557616" font-size="10" fill="black">0: Inicio</text>
<circle cx="117.0" cy="148.20819222" r="3" fill="red"/>
<text x="117.0" y="108.20819222" font-size="10" fill="black">1: Desfiladero de las Xanas</text>
<circle cx="222.0" cy="147.77738586" r="3" fill="red"/>
<text x="222.0" y="127.77738586000001" font-size="10" fill="black">2: Area Recreativa de Buyera</text>
<circle cx="255.0" cy="146.64362923333334" r="3" fill="red"/>
<text x="255.0" y="106.64362923333334" font-size="10" fill="black">3: Cercado de osas</text>
<circle cx="472.0" cy="144.21377983333332" r="3" fill="red"/>
<text x="472.0" y="124.21377983333332" font-size="10" fill="black">4: Desfiladero de PeñasJuntas</text>
<circle cx="862.0" cy="130.50994118" r="3" fill="red"/>
<text x="862.0" y="90.50994118" font-size="10" fill="black">5: Desfiladero de Valdecerezales</text>
<polyline points="10,160 10,150.3557616 117.0,148.20819222 222.0,147.77738586 255.0,146.64362923333334 472.0,144.21377983333332 862.0,130.50994118 862.0,160 10,160" style="fill:white;stroke:red;stroke-width:2" />
</g>
<text x="10" y="220" font-size="20" fill="black">Puertos de Marabio:</text>
<g transform="translate(0,230)">
<circle cx="10" cy="93.63168522666666" r="3" fill="blue"/>
<text x="10" y="73.63168522666666" font-size="10" fill="black">0: Inicio</text>
<circle cx="44.0" cy="94.43959126" r="3" fill="blue"/>
<text x="44.0" y="54.43959126" font-size="10" fill="black">1: Fuente</text>
<circle cx="144.0" cy="89.84035451999999" r="3" fill="blue"/>
<text x="144.0" y="69.84035451999999" font-size="10" fill="black">2: Pico Caldoveiro</text>
<circle cx="170.0" cy="94.12132477333334" r="3" fill="blue"/>
<text x="170.0" y="54.12132477333334" font-size="10" fill="black">3: Información</text>
<circle cx="180.0" cy="95.04581189333334" r="3" fill="blue"/>
<text x="180.0" y="75.04581189333334" font-size="10" fill="black">4: Casa de Don Pablo</text>
<circle cx="284.0" cy="93.46666512" r="3" fill="blue"/>
<text x="284.0" y="53.46666512" font-size="10" fill="black">5: Puertu de Marabiu</text>
<polyline points="10,160 10,93.63168522666666 44.0,94.43959126 144.0,89.84035451999999 170.0,94.12132477333334 180.0,95.04581189333334 284.0,93.46666512 284.0,160 10,160" style="fill:white;stroke:blue;stroke-width:2" />
</g>
<text x="10" y="420" font-size="20" fill="black">Las brañas de Vicenturo y Cueiro:</text>
<g transform="translate(0,430)">
<circle cx="10" cy="100.58777466666666" r="3" fill="green"/>
<text x="10" y="80.58777466666666" font-size="10" fill="black">0: Inicio</text>
<circle cx="52.0" cy="83.91579301333333" r="3" fill="green"/>
<text x="52.0" y="43.91579301333333" font-size="10" fill="black">1: Cuadras de la Conca</text>
<circle cx="111.0" cy="77.62789515333334" r="3" fill="green"/>
<text x="111.0" y="57.62789515333334" font-size="10" fill="black">2: Vicenturo</text>
<circle cx="187.0" cy="75.11910794666666" r="3" fill="green"/>
<text x="187.0" y="35.11910794666666" font-size="10" fill="black">3: Fuente Brana de Taja</text>
<circle cx="248.0" cy="72.18253841333333" r="3" fill="green"/>
<text x="248.0" y="52.18253841333333" font-size="10" fill="black">4: Cueiro</text>
<circle cx="347.0" cy="95.49683956" r="3" fill="green"/>
<text x="347.0" y="55.49683956" font-size="10" fill="black">5: Taxa</text>
<polyline points="10,160 10,100.58777466666666 52.0,83.91579301333333 111.0,77.62789515333334 187.0,75.11910794666666 248.0,72.18253841333333 347.0,95.49683956 347.0,160 10,160" style="fill:white;stroke:green;stroke-width:2" />
</g>
</svg>