<?xml version="1.0" encoding="UTF-8" ?>
<svg xmlns="http://www.w3.org/2000/svg" version="2.0">
<polyline points=
    "10, 160
    10.0,144.45
    53.0,139.4
    85.0,150.15
    93.0,150.2
    102.0,148.2
    108.0,139.65
    249.0,138.15
    258.0,140.25
    266.0,138.0
    273.0,136.1
    290.0,136.5
    298.0,143.25
    304.0,144.0
    311.0,139.7
    353.0,138.8
    358.0,134.1
    365.0,138.05
    372.0,138.05
    380.0,139.35
    391.0,144.3
    399.0,144.45
    408.0,139.4
    415.0,150.15
    422.0,150.2
    438.0,148.2
    465.0,139.65
    474.0,138.15
    482.0,140.25
    487.0,138.0
    496.0,136.1
    522.0,136.5
    550.0,143.25
    554.0,144.0
    559.0,139.7
    562.0,138.8
    566.0,134.1
    571.0,138.05
    577.0,138.05
    585.0,139.35
    595.0,144.3
    607.0,144.3
    616.0,144.3
    661.0,144.3
    661.0, 160 10,160" 
    
    style="fill:white;stroke:red;stroke-width:4" />
</svg>