<?xml version='1.0' encoding='utf-8'?>
<svg xmlns="http://www.w3.org/2000/svg">
  <polyline points="10,160 62.28553464006639,45.128550800000085 67.52732151915038,18.356808799999953 72.38658711969416,20.149923599999966 78.31957248854029,33.90999000000011 81.84802199563653,49.49191760000008 84.99956284669561,55.066373800000065 88.06456683069703,60.64083000000005 92.0728089852749,66.21528620000004 95.75890960921812,71.78974240000002 98.80182408148909,84.87536100000011 101.71373893735054,91.41817029999993 104.8607885871128,97.96097959999997 107.15684010771601,98.87841400000002 111.34138137346633,99.79584840000007 114.00847713464832,88.62313339999992 117.08952856710489,83.03677590000007 120.19879967676859,77.45041839999999 123.92425968292383,67.76120160000005 127.49277869722812,58.07198480000011 131.10062308976083,48.38276799999994 136.35193090627303,38.6935512 140.89209937261614,30.42220259999999 144.0419469344401,26.2865283000001 154.40400351610558,22.15085399999998 160.13677597779906,43.98766520000004 166.46972510678148,65.8244764000001 169.88856485540336,82.13590600000043 172.86724340811105,90.29162079999992 186.48731647229764,98.44733560000009 200.25391171761186,102.59893039999997 206.7933982117614,106.75052520000008 216.9750267678143,67.26287580000007 227.42088163823473,47.51905110000007 240.64244161452376,27.775226400000065 261.9379955991696,11.29301559999999 308.80775205504887,22.00988039999993 315.59529039848456,145.53207399999997 321.7337629395329,136.905436 349.2188709269363,134.16131760000007 352.94264007426113,117.66966359999992 357.3739669380351,105.64572520000002 372.903642445995,87.56489639999995 372.903642445995,45.128550800000085 372.903642445995,160 10,160" stroke="red" stroke-width="4" fill="none" />
</svg>