<?xml version="1.0" encoding="utf-8"?><svg width="auto" height="2670" style="overflow:visible " version="1.1" xmlns="http://www.w3.org/2000/svg"><rect x="20" y="20" width="200" height="40" style="fill:white;stroke:black;stroke-width:1" /><text x="30" y="30" font-size="10" style="fill:blue">circuito</text><rect x="240" y="20" width="200" height="40" style="fill:white;stroke:black;stroke-width:1" /><text x="250" y="30" font-size="10" style="fill:blue">datos</text><path d="M220 40 C240 40 220 40 240 40" style="fill:transparent;stroke:black" /><text x="250" y="40" font-size="8" style="fill:black">nombre: Circuito Internacional de Shanghai</text><text x="250" y="50" font-size="8" style="fill:black">longitudCircuito: 5451</text><text x="250" y="60" font-size="8" style="fill:black">anchuraMedia: 13</text><text x="250" y="70" font-size="8" style="fill:black">fechaCarrera24: 21-04-24</text><text x="250" y="80" font-size="8" style="fill:black">horaEspInicio: 9:00</text><text x="250" y="90" font-size="8" style="fill:black">numVueltas: 56</text><text x="250" y="100" font-size="8" style="fill:black">localidad: Jiading, Shanghai</text><text x="250" y="110" font-size="8" style="fill:black">país: China</text><rect x="240" y="70" width="200" height="40" style="fill:white;stroke:black;stroke-width:1" /><text x="250" y="80" font-size="10" style="fill:blue">ref</text><path d="M220 40 C240 40 220 90 240 90" style="fill:transparent;stroke:black" /><rect x="306" y="70" width="137" height="40" style="fill:green;stroke:black;stroke-width:1" /><text x="316" y="80" font-size="8" style="fill:white">https://es.wikipedia.org/wiki/Circuito_Internacional_de_Shangh%C3%A1i</text><rect x="240" y="120" width="200" height="40" style="fill:white;stroke:black;stroke-width:1" /><text x="250" y="130" font-size="10" style="fill:blue">ref</text><path d="M220 40 C240 40 220 140 240 140" style="fill:transparent;stroke:black" /><rect x="306" y="120" width="137" height="40" style="fill:green;stroke:black;stroke-width:1" /><text x="316" y="130" font-size="8" style="fill:white">https://es.wikipedia.org/wiki/Anexo:Gran_Premio_de_China_de_2024</text><rect x="240" y="170" width="200" height="40" style="fill:white;stroke:black;stroke-width:1" /><text x="250" y="180" font-size="10" style="fill:blue">ref</text><path d="M220 40 C240 40 220 190 240 190" style="fill:transparent;stroke:black" /><rect x="306" y="170" width="137" height="40" style="fill:green;stroke:black;stroke-width:1" /><text x="316" y="180" font-size="8" style="fill:white">https://lebalap.academy/f1/circuito-internacional-de-shanghai/</text><rect x="240" y="220" width="200" height="40" style="fill:white;stroke:black;stroke-width:1" /><text x="250" y="230" font-size="10" style="fill:blue">ref</text><path d="M220 40 C240 40 220 240 240 240" style="fill:transparent;stroke:black" /><rect x="306" y="220" width="137" height="40" style="fill:green;stroke:black;stroke-width:1" /><text x="316" y="230" font-size="8" style="fill:white">https://latitude.to/articles-by-country/cn/china/6987/shanghai-international-circuit</text><rect x="240" y="270" width="200" height="40" style="fill:white;stroke:black;stroke-width:1" /><text x="250" y="280" font-size="10" style="fill:blue">galería</text><path d="M220 40 C240 40 220 290 240 290" style="fill:transparent;stroke:black" /><rect x="460" y="270" width="200" height="40" style="fill:white;stroke:black;stroke-width:1" /><text x="470" y="280" font-size="10" style="fill:blue">foto</text><path d="M440 290 C460 290 440 290 460 290" style="fill:transparent;stroke:black" /><rect x="526" y="270" width="137" height="40" style="fill:green;stroke:black;stroke-width:1" /><text x="536" y="280" font-size="8" style="fill:white">CircuitoDibujo.jpg</text><rect x="460" y="320" width="200" height="40" style="fill:white;stroke:black;stroke-width:1" /><text x="470" y="330" font-size="10" style="fill:blue">foto</text><path d="M440 290 C460 290 440 340 460 340" style="fill:transparent;stroke:black" /><rect x="526" y="320" width="137" height="40" style="fill:green;stroke:black;stroke-width:1" /><text x="536" y="330" font-size="8" style="fill:white">CircuitoLineaSalida.jpg</text><rect x="460" y="370" width="200" height="40" style="fill:white;stroke:black;stroke-width:1" /><text x="470" y="380" font-size="10" style="fill:blue">foto</text><path d="M440 290 C460 290 440 390 460 390" style="fill:transparent;stroke:black" /><rect x="526" y="370" width="137" height="40" style="fill:green;stroke:black;stroke-width:1" /><text x="536" y="380" font-size="8" style="fill:white">CircuitoPanorama.jpg</text><rect x="460" y="420" width="200" height="40" style="fill:white;stroke:black;stroke-width:1" /><text x="470" y="430" font-size="10" style="fill:blue">vídeo</text><path d="M440 290 C460 290 440 440 460 440" style="fill:transparent;stroke:black" /><rect x="526" y="420" width="137" height="40" style="fill:green;stroke:black;stroke-width:1" /><text x="536" y="430" font-size="8" style="fill:white">"ParrillaSalida24.mp4"</text><rect x="460" y="470" width="200" height="40" style="fill:white;stroke:black;stroke-width:1" /><text x="470" y="480" font-size="10" style="fill:blue">vídeo</text><path d="M440 290 C460 290 440 490 460 490" style="fill:transparent;stroke:black" /><rect x="526" y="470" width="137" height="40" style="fill:green;stroke:black;stroke-width:1" /><text x="536" y="480" font-size="8" style="fill:white">"VueltaCircuito.mp4"</text><rect x="240" y="570" width="200" height="40" style="fill:white;stroke:black;stroke-width:1" /><text x="250" y="580" font-size="10" style="fill:blue">coordenadas</text><path d="M220 40 C240 40 220 590 240 590" style="fill:transparent;stroke:black" /><text x="250" y="590" font-size="8" style="fill:black">longitud: 121.218499126</text><text x="250" y="600" font-size="8" style="fill:black">latitud: 31.33666532</text><text x="250" y="610" font-size="8" style="fill:black">altitud: 4</text><rect x="240" y="620" width="200" height="40" style="fill:white;stroke:black;stroke-width:1" /><text x="250" y="630" font-size="10" style="fill:blue">tramo</text><path d="M220 40 C240 40 220 640 240 640" style="fill:transparent;stroke:black" /><text x="250" y="640" font-size="8" style="fill:black">distancia: 373</text><text x="250" y="650" font-size="8" style="fill:black">numSector: 1</text><rect x="460" y="620" width="200" height="40" style="fill:white;stroke:black;stroke-width:1" /><text x="470" y="630" font-size="10" style="fill:blue">coordenadas</text><path d="M440 640 C460 640 440 640 460 640" style="fill:transparent;stroke:black" /><text x="470" y="640" font-size="8" style="fill:black">longitud: 121.216597</text><text x="470" y="650" font-size="8" style="fill:black">latitud: 31.336757</text><text x="470" y="660" font-size="8" style="fill:black">altitud: 3.11</text><rect x="240" y="720" width="200" height="40" style="fill:white;stroke:black;stroke-width:1" /><text x="250" y="730" font-size="10" style="fill:blue">tramo</text><path d="M220 40 C240 40 220 740 240 740" style="fill:transparent;stroke:black" /><text x="250" y="740" font-size="8" style="fill:black">distancia: 124</text><text x="250" y="750" font-size="8" style="fill:black">numSector: 2</text><rect x="460" y="720" width="200" height="40" style="fill:white;stroke:black;stroke-width:1" /><text x="470" y="730" font-size="10" style="fill:blue">coordenadas</text><path d="M440 740 C460 740 440 740 460 740" style="fill:transparent;stroke:black" /><text x="470" y="740" font-size="8" style="fill:black">longitud: 121.216291</text><text x="470" y="750" font-size="8" style="fill:black">latitud: 31.337989</text><text x="470" y="760" font-size="8" style="fill:black">altitud: 4.12</text><rect x="240" y="820" width="200" height="40" style="fill:white;stroke:black;stroke-width:1" /><text x="250" y="830" font-size="10" style="fill:blue">tramo</text><path d="M220 40 C240 40 220 840 240 840" style="fill:transparent;stroke:black" /><text x="250" y="840" font-size="8" style="fill:black">distancia: 99</text><text x="250" y="850" font-size="8" style="fill:black">numSector: 3</text><rect x="460" y="820" width="200" height="40" style="fill:white;stroke:black;stroke-width:1" /><text x="470" y="830" font-size="10" style="fill:blue">coordenadas</text><path d="M440 840 C460 840 440 840 460 840" style="fill:transparent;stroke:black" /><text x="470" y="840" font-size="8" style="fill:black">longitud: 121.217175</text><text x="470" y="850" font-size="8" style="fill:black">latitud: 31.337866</text><text x="470" y="860" font-size="8" style="fill:black">altitud: 1.97</text><rect x="240" y="920" width="200" height="40" style="fill:white;stroke:black;stroke-width:1" /><text x="250" y="930" font-size="10" style="fill:blue">tramo</text><path d="M220 40 C240 40 220 940 240 940" style="fill:transparent;stroke:black" /><text x="250" y="940" font-size="8" style="fill:black">distancia: 87</text><text x="250" y="950" font-size="8" style="fill:black">numSector: 4</text><rect x="460" y="920" width="200" height="40" style="fill:white;stroke:black;stroke-width:1" /><text x="470" y="930" font-size="10" style="fill:blue">coordenadas</text><path d="M440 940 C460 940 440 940 460 940" style="fill:transparent;stroke:black" /><text x="470" y="940" font-size="8" style="fill:black">longitud: 121.217229</text><text x="470" y="950" font-size="8" style="fill:black">latitud: 31.337203</text><text x="470" y="960" font-size="8" style="fill:black">altitud: 1.96</text><rect x="240" y="1020" width="200" height="40" style="fill:white;stroke:black;stroke-width:1" /><text x="250" y="1030" font-size="10" style="fill:blue">tramo</text><path d="M220 40 C240 40 220 1040 240 1040" style="fill:transparent;stroke:black" /><text x="250" y="1040" font-size="8" style="fill:black">distancia: 98</text><text x="250" y="1050" font-size="8" style="fill:black">numSector: 5</text><rect x="460" y="1020" width="200" height="40" style="fill:white;stroke:black;stroke-width:1" /><text x="470" y="1030" font-size="10" style="fill:blue">coordenadas</text><path d="M440 1040 C460 1040 440 1040 460 1040" style="fill:transparent;stroke:black" /><text x="470" y="1040" font-size="8" style="fill:black">longitud: 121.217806</text><text x="470" y="1050" font-size="8" style="fill:black">latitud: 31.337989</text><text x="470" y="1060" font-size="8" style="fill:black">altitud: 2.36</text><rect x="240" y="1120" width="200" height="40" style="fill:white;stroke:black;stroke-width:1" /><text x="250" y="1130" font-size="10" style="fill:blue">tramo</text><path d="M220 40 C240 40 220 1140 240 1140" style="fill:transparent;stroke:black" /><text x="250" y="1140" font-size="8" style="fill:black">distancia: 319</text><text x="250" y="1150" font-size="8" style="fill:black">numSector: 6</text><rect x="460" y="1120" width="200" height="40" style="fill:white;stroke:black;stroke-width:1" /><text x="470" y="1130" font-size="10" style="fill:blue">coordenadas</text><path d="M440 1140 C460 1140 440 1140 460 1140" style="fill:transparent;stroke:black" /><text x="470" y="1140" font-size="8" style="fill:black">longitud: 121.215785</text><text x="470" y="1150" font-size="8" style="fill:black">latitud: 31.340085</text><text x="470" y="1160" font-size="8" style="fill:black">altitud: 4.07</text><rect x="240" y="1220" width="200" height="40" style="fill:white;stroke:black;stroke-width:1" /><text x="250" y="1230" font-size="10" style="fill:blue">tramo</text><path d="M220 40 C240 40 220 1240 240 1240" style="fill:transparent;stroke:black" /><text x="250" y="1240" font-size="8" style="fill:black">distancia: 200</text><text x="250" y="1250" font-size="8" style="fill:black">numSector: 7</text><rect x="460" y="1220" width="200" height="40" style="fill:white;stroke:black;stroke-width:1" /><text x="470" y="1230" font-size="10" style="fill:blue">coordenadas</text><path d="M440 1240 C460 1240 440 1240 460 1240" style="fill:transparent;stroke:black" /><text x="470" y="1240" font-size="8" style="fill:black">longitud: 121.215082</text><text x="470" y="1250" font-size="8" style="fill:black">latitud: 31.342181</text><text x="470" y="1260" font-size="8" style="fill:black">altitud: 4.37</text><rect x="240" y="1320" width="200" height="40" style="fill:white;stroke:black;stroke-width:1" /><text x="250" y="1330" font-size="10" style="fill:blue">tramo</text><path d="M220 40 C240 40 220 1340 240 1340" style="fill:transparent;stroke:black" /><text x="250" y="1340" font-size="8" style="fill:black">distancia: 500</text><text x="250" y="1350" font-size="8" style="fill:black">numSector: 8</text><rect x="460" y="1320" width="200" height="40" style="fill:white;stroke:black;stroke-width:1" /><text x="470" y="1330" font-size="10" style="fill:blue">coordenadas</text><path d="M440 1340 C460 1340 440 1340 460 1340" style="fill:transparent;stroke:black" /><text x="470" y="1340" font-size="8" style="fill:black">longitud: 121.218185</text><text x="470" y="1350" font-size="8" style="fill:black">latitud: 31.339531</text><text x="470" y="1360" font-size="8" style="fill:black">altitud: 3.95</text><rect x="240" y="1420" width="200" height="40" style="fill:white;stroke:black;stroke-width:1" /><text x="250" y="1430" font-size="10" style="fill:blue">tramo</text><path d="M220 40 C240 40 220 1440 240 1440" style="fill:transparent;stroke:black" /><text x="250" y="1440" font-size="8" style="fill:black">distancia: 300</text><text x="250" y="1450" font-size="8" style="fill:black">numSector: 9</text><rect x="460" y="1420" width="200" height="40" style="fill:white;stroke:black;stroke-width:1" /><text x="470" y="1430" font-size="10" style="fill:blue">coordenadas</text><path d="M440 1440 C460 1440 440 1440 460 1440" style="fill:transparent;stroke:black" /><text x="470" y="1440" font-size="8" style="fill:black">longitud: 121.220639</text><text x="470" y="1450" font-size="8" style="fill:black">latitud: 31.341349</text><text x="470" y="1460" font-size="8" style="fill:black">altitud: 4.4</text><rect x="240" y="1520" width="200" height="40" style="fill:white;stroke:black;stroke-width:1" /><text x="250" y="1530" font-size="10" style="fill:blue">tramo</text><path d="M220 40 C240 40 220 1540 240 1540" style="fill:transparent;stroke:black" /><text x="250" y="1540" font-size="8" style="fill:black">distancia: 100</text><text x="250" y="1550" font-size="8" style="fill:black">numSector: 10</text><rect x="460" y="1520" width="200" height="40" style="fill:white;stroke:black;stroke-width:1" /><text x="470" y="1530" font-size="10" style="fill:blue">coordenadas</text><path d="M440 1540 C460 1540 440 1540 460 1540" style="fill:transparent;stroke:black" /><text x="470" y="1540" font-size="8" style="fill:black">longitud: 121.221866</text><text x="470" y="1550" font-size="8" style="fill:black">latitud: 31.340178</text><text x="470" y="1560" font-size="8" style="fill:black">altitud: 4.78</text><rect x="240" y="1620" width="200" height="40" style="fill:white;stroke:black;stroke-width:1" /><text x="250" y="1630" font-size="10" style="fill:blue">tramo</text><path d="M220 40 C240 40 220 1640 240 1640" style="fill:transparent;stroke:black" /><text x="250" y="1640" font-size="8" style="fill:black">distancia: 100</text><text x="250" y="1650" font-size="8" style="fill:black">numSector: 11</text><rect x="460" y="1620" width="200" height="40" style="fill:white;stroke:black;stroke-width:1" /><text x="470" y="1630" font-size="10" style="fill:blue">coordenadas</text><path d="M440 1640 C460 1640 440 1640 460 1640" style="fill:transparent;stroke:black" /><text x="470" y="1640" font-size="8" style="fill:black">longitud: 121.222660</text><text x="470" y="1650" font-size="8" style="fill:black">latitud: 31.340856</text><text x="470" y="1660" font-size="8" style="fill:black">altitud: 4.7</text><rect x="240" y="1720" width="200" height="40" style="fill:white;stroke:black;stroke-width:1" /><text x="250" y="1730" font-size="10" style="fill:blue">tramo</text><path d="M220 40 C240 40 220 1740 240 1740" style="fill:transparent;stroke:black" /><text x="250" y="1740" font-size="8" style="fill:black">distancia: 500</text><text x="250" y="1750" font-size="8" style="fill:black">numSector: 12</text><rect x="460" y="1720" width="200" height="40" style="fill:white;stroke:black;stroke-width:1" /><text x="470" y="1730" font-size="10" style="fill:blue">coordenadas</text><path d="M440 1740 C460 1740 440 1740 460 1740" style="fill:transparent;stroke:black" /><text x="470" y="1740" font-size="8" style="fill:black">longitud: 121.220116</text><text x="470" y="1750" font-size="8" style="fill:black">latitud: 31.344493</text><text x="470" y="1760" font-size="8" style="fill:black">altitud: 3.35</text><rect x="240" y="1820" width="200" height="40" style="fill:white;stroke:black;stroke-width:1" /><text x="250" y="1830" font-size="10" style="fill:blue">tramo</text><path d="M220 40 C240 40 220 1840 240 1840" style="fill:transparent;stroke:black" /><text x="250" y="1840" font-size="8" style="fill:black">distancia: 100</text><text x="250" y="1850" font-size="8" style="fill:black">numSector: 13</text><rect x="460" y="1820" width="200" height="40" style="fill:white;stroke:black;stroke-width:1" /><text x="470" y="1830" font-size="10" style="fill:blue">coordenadas</text><path d="M440 1840 C460 1840 440 1840 460 1840" style="fill:transparent;stroke:black" /><text x="470" y="1840" font-size="8" style="fill:black">longitud: 121.219178</text><text x="470" y="1850" font-size="8" style="fill:black">latitud: 31.344200</text><text x="470" y="1860" font-size="8" style="fill:black">altitud: 3.2</text><rect x="240" y="1920" width="200" height="40" style="fill:white;stroke:black;stroke-width:1" /><text x="250" y="1930" font-size="10" style="fill:blue">tramo</text><path d="M220 40 C240 40 220 1940 240 1940" style="fill:transparent;stroke:black" /><text x="250" y="1940" font-size="8" style="fill:black">distancia: 100</text><text x="250" y="1950" font-size="8" style="fill:black">numSector: 14</text><rect x="460" y="1920" width="200" height="40" style="fill:white;stroke:black;stroke-width:1" /><text x="470" y="1930" font-size="10" style="fill:blue">coordenadas</text><path d="M440 1940 C460 1940 440 1940 460 1940" style="fill:transparent;stroke:black" /><text x="470" y="1940" font-size="8" style="fill:black">longitud: 121.219160</text><text x="470" y="1950" font-size="8" style="fill:black">latitud: 31.345387</text><text x="470" y="1960" font-size="8" style="fill:black">altitud: 4.06</text><rect x="240" y="2020" width="200" height="40" style="fill:white;stroke:black;stroke-width:1" /><text x="250" y="2030" font-size="10" style="fill:blue">tramo</text><path d="M220 40 C240 40 220 2040 240 2040" style="fill:transparent;stroke:black" /><text x="250" y="2040" font-size="8" style="fill:black">distancia: 200</text><text x="250" y="2050" font-size="8" style="fill:black">numSector: 15</text><rect x="460" y="2020" width="200" height="40" style="fill:white;stroke:black;stroke-width:1" /><text x="470" y="2030" font-size="10" style="fill:blue">coordenadas</text><path d="M440 2040 C460 2040 440 2040 460 2040" style="fill:transparent;stroke:black" /><text x="470" y="2040" font-size="8" style="fill:black">longitud: 121.220802</text><text x="470" y="2050" font-size="8" style="fill:black">latitud: 31.345171</text><text x="470" y="2060" font-size="8" style="fill:black">altitud: 4.24</text><rect x="240" y="2120" width="200" height="40" style="fill:white;stroke:black;stroke-width:1" /><text x="250" y="2130" font-size="10" style="fill:blue">tramo</text><path d="M220 40 C240 40 220 2140 240 2140" style="fill:transparent;stroke:black" /><text x="250" y="2140" font-size="8" style="fill:black">distancia: 1200</text><text x="250" y="2150" font-size="8" style="fill:black">numSector: 16</text><rect x="460" y="2120" width="200" height="40" style="fill:white;stroke:black;stroke-width:1" /><text x="470" y="2130" font-size="10" style="fill:blue">coordenadas</text><path d="M440 2140 C460 2140 440 2140 460 2140" style="fill:transparent;stroke:black" /><text x="470" y="2140" font-size="8" style="fill:black">longitud: 121.227929</text><text x="470" y="2150" font-size="8" style="fill:black">latitud: 31.336001</text><text x="470" y="2160" font-size="8" style="fill:black">altitud: 5.18</text><rect x="240" y="2220" width="200" height="40" style="fill:white;stroke:black;stroke-width:1" /><text x="250" y="2230" font-size="10" style="fill:blue">tramo</text><path d="M220 40 C240 40 220 2240 240 2240" style="fill:transparent;stroke:black" /><text x="250" y="2240" font-size="8" style="fill:black">distancia: 100</text><text x="250" y="2250" font-size="8" style="fill:black">numSector: 17</text><rect x="460" y="2220" width="200" height="40" style="fill:white;stroke:black;stroke-width:1" /><text x="470" y="2230" font-size="10" style="fill:blue">coordenadas</text><path d="M440 2240 C460 2240 440 2240 460 2240" style="fill:transparent;stroke:black" /><text x="470" y="2240" font-size="8" style="fill:black">longitud: 121.227135</text><text x="470" y="2250" font-size="8" style="fill:black">latitud: 31.336094</text><text x="470" y="2260" font-size="8" style="fill:black">altitud: 4.39</text><rect x="240" y="2320" width="200" height="40" style="fill:white;stroke:black;stroke-width:1" /><text x="250" y="2330" font-size="10" style="fill:blue">tramo</text><path d="M220 40 C240 40 220 2340 240 2340" style="fill:transparent;stroke:black" /><text x="250" y="2340" font-size="8" style="fill:black">distancia: 300</text><text x="250" y="2350" font-size="8" style="fill:black">numSector: 18</text><rect x="460" y="2320" width="200" height="40" style="fill:white;stroke:black;stroke-width:1" /><text x="470" y="2330" font-size="10" style="fill:blue">coordenadas</text><path d="M440 2340 C460 2340 440 2340 460 2340" style="fill:transparent;stroke:black" /><text x="470" y="2340" font-size="8" style="fill:black">longitud: 121.225204</text><text x="470" y="2350" font-size="8" style="fill:black">latitud: 31.338298</text><text x="470" y="2360" font-size="8" style="fill:black">altitud: 4.39</text><rect x="240" y="2420" width="200" height="40" style="fill:white;stroke:black;stroke-width:1" /><text x="250" y="2430" font-size="10" style="fill:blue">tramo</text><path d="M220 40 C240 40 220 2440 240 2440" style="fill:transparent;stroke:black" /><text x="250" y="2440" font-size="8" style="fill:black">distancia: 500</text><text x="250" y="2450" font-size="8" style="fill:black">numSector: 19</text><rect x="460" y="2420" width="200" height="40" style="fill:white;stroke:black;stroke-width:1" /><text x="470" y="2430" font-size="10" style="fill:blue">coordenadas</text><path d="M440 2440 C460 2440 440 2440 460 2440" style="fill:transparent;stroke:black" /><text x="470" y="2440" font-size="8" style="fill:black">longitud: 121.220711</text><text x="470" y="2450" font-size="8" style="fill:black">latitud: 31.337358</text><text x="470" y="2460" font-size="8" style="fill:black">altitud: 4.13</text><rect x="240" y="2520" width="200" height="40" style="fill:white;stroke:black;stroke-width:1" /><text x="250" y="2530" font-size="10" style="fill:blue">tramo</text><path d="M220 40 C240 40 220 2540 240 2540" style="fill:transparent;stroke:black" /><text x="250" y="2540" font-size="8" style="fill:black">distancia: 402</text><text x="250" y="2550" font-size="8" style="fill:black">numSector: 20</text><rect x="460" y="2520" width="200" height="40" style="fill:white;stroke:black;stroke-width:1" /><text x="470" y="2530" font-size="10" style="fill:blue">coordenadas</text><path d="M440 2540 C460 2540 440 2540 460 2540" style="fill:transparent;stroke:black" /><text x="470" y="2540" font-size="8" style="fill:black">longitud: 121.216597</text><text x="470" y="2550" font-size="8" style="fill:black">latitud: 31.336757</text><text x="470" y="2560" font-size="8" style="fill:black">altitud: 3.14</text></svg>