<?xml version="1.0" encoding="utf-8"?><svg width="auto" height="4970" style="overflow:visible " version="1.1" xmlns="http://www.w3.org/2000/svg"><rect x="20" y="20" width="200" height="40" style="fill:white;stroke:black;stroke-width:1" /><text x="30" y="30" font-size="10" style="fill:blue">circuito</text><rect x="240" y="20" width="200" height="40" style="fill:white;stroke:black;stroke-width:1" /><text x="250" y="30" font-size="10" style="fill:blue">datos</text><path d="M220 40 C240 40 220 40 240 40" style="fill:transparent;stroke:black" /><text x="250" y="40" font-size="8" style="fill:black">nombre: Circuito Internacional de Shanghai</text><text x="250" y="50" font-size="8" style="fill:black">longitudCircuito: 5451</text><text x="250" y="60" font-size="8" style="fill:black">anchuraMedia: 13</text><text x="250" y="70" font-size="8" style="fill:black">fechaCarrera24: 21-04-24</text><text x="250" y="80" font-size="8" style="fill:black">horaEspInicio: 9:00</text><text x="250" y="90" font-size="8" style="fill:black">numVueltas: 56</text><text x="250" y="100" font-size="8" style="fill:black">localidad: Jiading, Shanghai</text><text x="250" y="110" font-size="8" style="fill:black">país: China</text><rect x="240" y="70" width="200" height="40" style="fill:white;stroke:black;stroke-width:1" /><text x="250" y="80" font-size="10" style="fill:blue">ref</text><path d="M220 40 C240 40 220 90 240 90" style="fill:transparent;stroke:black" /><rect x="306" y="70" width="137" height="40" style="fill:green;stroke:black;stroke-width:1" /><text x="316" y="80" font-size="8" style="fill:white">https://es.wikipedia.org/wiki/Circuito_Internacional_de_Shangh%C3%A1i</text><rect x="240" y="120" width="200" height="40" style="fill:white;stroke:black;stroke-width:1" /><text x="250" y="130" font-size="10" style="fill:blue">ref</text><path d="M220 40 C240 40 220 140 240 140" style="fill:transparent;stroke:black" /><rect x="306" y="120" width="137" height="40" style="fill:green;stroke:black;stroke-width:1" /><text x="316" y="130" font-size="8" style="fill:white">https://es.wikipedia.org/wiki/Anexo:Gran_Premio_de_China_de_2024</text><rect x="240" y="170" width="200" height="40" style="fill:white;stroke:black;stroke-width:1" /><text x="250" y="180" font-size="10" style="fill:blue">ref</text><path d="M220 40 C240 40 220 190 240 190" style="fill:transparent;stroke:black" /><rect x="306" y="170" width="137" height="40" style="fill:green;stroke:black;stroke-width:1" /><text x="316" y="180" font-size="8" style="fill:white">https://lebalap.academy/f1/circuito-internacional-de-shanghai/</text><rect x="240" y="220" width="200" height="40" style="fill:white;stroke:black;stroke-width:1" /><text x="250" y="230" font-size="10" style="fill:blue">ref</text><path d="M220 40 C240 40 220 240 240 240" style="fill:transparent;stroke:black" /><rect x="306" y="220" width="137" height="40" style="fill:green;stroke:black;stroke-width:1" /><text x="316" y="230" font-size="8" style="fill:white">https://latitude.to/articles-by-country/cn/china/6987/shanghai-international-circuit</text><rect x="240" y="270" width="200" height="40" style="fill:white;stroke:black;stroke-width:1" /><text x="250" y="280" font-size="10" style="fill:blue">galería</text><path d="M220 40 C240 40 220 290 240 290" style="fill:transparent;stroke:black" /><rect x="460" y="270" width="200" height="40" style="fill:white;stroke:black;stroke-width:1" /><text x="470" y="280" font-size="10" style="fill:blue">foto</text><path d="M440 290 C460 290 440 290 460 290" style="fill:transparent;stroke:black" /><rect x="526" y="270" width="137" height="40" style="fill:green;stroke:black;stroke-width:1" /><text x="536" y="280" font-size="8" style="fill:white">CircuitoDibujo.jpg</text><rect x="460" y="320" width="200" height="40" style="fill:white;stroke:black;stroke-width:1" /><text x="470" y="330" font-size="10" style="fill:blue">foto</text><path d="M440 290 C460 290 440 340 460 340" style="fill:transparent;stroke:black" /><rect x="526" y="320" width="137" height="40" style="fill:green;stroke:black;stroke-width:1" /><text x="536" y="330" font-size="8" style="fill:white">CircuitoLineaSalida.jpg</text><rect x="460" y="370" width="200" height="40" style="fill:white;stroke:black;stroke-width:1" /><text x="470" y="380" font-size="10" style="fill:blue">foto</text><path d="M440 290 C460 290 440 390 460 390" style="fill:transparent;stroke:black" /><rect x="526" y="370" width="137" height="40" style="fill:green;stroke:black;stroke-width:1" /><text x="536" y="380" font-size="8" style="fill:white">CircuitoPanorama.jpg</text><rect x="460" y="420" width="200" height="40" style="fill:white;stroke:black;stroke-width:1" /><text x="470" y="430" font-size="10" style="fill:blue">vídeo</text><path d="M440 290 C460 290 440 440 460 440" style="fill:transparent;stroke:black" /><rect x="526" y="420" width="137" height="40" style="fill:green;stroke:black;stroke-width:1" /><text x="536" y="430" font-size="8" style="fill:white">"ParrillaSalida24.mp4"</text><rect x="460" y="470" width="200" height="40" style="fill:white;stroke:black;stroke-width:1" /><text x="470" y="480" font-size="10" style="fill:blue">vídeo</text><path d="M440 290 C460 290 440 490 460 490" style="fill:transparent;stroke:black" /><rect x="526" y="470" width="137" height="40" style="fill:green;stroke:black;stroke-width:1" /><text x="536" y="480" font-size="8" style="fill:white">"VueltaCircuito.mp4"</text><rect x="240" y="570" width="200" height="40" style="fill:white;stroke:black;stroke-width:1" /><text x="250" y="580" font-size="10" style="fill:blue">coordenadas</text><path d="M220 40 C240 40 220 590 240 590" style="fill:transparent;stroke:black" /><text x="250" y="590" font-size="8" style="fill:black">longitud: 121.2252299</text><text x="250" y="600" font-size="8" style="fill:black">latitud: 31.3349949</text><text x="250" y="610" font-size="8" style="fill:black">altitud: 4</text><rect x="240" y="620" width="200" height="40" style="fill:white;stroke:black;stroke-width:1" /><text x="250" y="630" font-size="10" style="fill:blue">tramo</text><path d="M220 40 C240 40 220 640 240 640" style="fill:transparent;stroke:black" /><text x="250" y="640" font-size="8" style="fill:black">distancia: 0</text><text x="250" y="650" font-size="8" style="fill:black">numSector: 1</text><rect x="460" y="620" width="200" height="40" style="fill:white;stroke:black;stroke-width:1" /><text x="470" y="630" font-size="10" style="fill:blue">coordenadas</text><path d="M440 640 C460 640 440 640 460 640" style="fill:transparent;stroke:black" /><text x="470" y="640" font-size="8" style="fill:black">longitud: 121.2252299</text><text x="470" y="650" font-size="8" style="fill:black">latitud: 31.3349949</text><text x="470" y="660" font-size="8" style="fill:black">altitud: 3.11</text><rect x="240" y="720" width="200" height="40" style="fill:white;stroke:black;stroke-width:1" /><text x="250" y="730" font-size="10" style="fill:blue">tramo</text><path d="M220 40 C240 40 220 740 240 740" style="fill:transparent;stroke:black" /><text x="250" y="740" font-size="8" style="fill:black">distancia: 430</text><text x="250" y="750" font-size="8" style="fill:black">numSector: 2</text><rect x="460" y="720" width="200" height="40" style="fill:white;stroke:black;stroke-width:1" /><text x="470" y="730" font-size="10" style="fill:blue">coordenadas</text><path d="M440 740 C460 740 440 740 460 740" style="fill:transparent;stroke:black" /><text x="470" y="740" font-size="8" style="fill:black">longitud: 121.2295858</text><text x="470" y="750" font-size="8" style="fill:black">latitud: 31.3358746</text><text x="470" y="760" font-size="8" style="fill:black">altitud: 4.12</text><rect x="240" y="820" width="200" height="40" style="fill:white;stroke:black;stroke-width:1" /><text x="250" y="830" font-size="10" style="fill:blue">tramo</text><path d="M220 40 C240 40 220 840 240 840" style="fill:transparent;stroke:black" /><text x="250" y="840" font-size="8" style="fill:black">distancia: 320</text><text x="250" y="850" font-size="8" style="fill:black">numSector: 3</text><rect x="460" y="820" width="200" height="40" style="fill:white;stroke:black;stroke-width:1" /><text x="470" y="830" font-size="10" style="fill:blue">coordenadas</text><path d="M440 840 C460 840 440 840 460 840" style="fill:transparent;stroke:black" /><text x="470" y="840" font-size="8" style="fill:black">longitud: 121.2317745</text><text x="470" y="850" font-size="8" style="fill:black">latitud: 31.3336386</text><text x="470" y="860" font-size="8" style="fill:black">altitud: 1.97</text><rect x="240" y="920" width="200" height="40" style="fill:white;stroke:black;stroke-width:1" /><text x="250" y="930" font-size="10" style="fill:blue">tramo</text><path d="M220 40 C240 40 220 940 240 940" style="fill:transparent;stroke:black" /><text x="250" y="940" font-size="8" style="fill:black">distancia: 80</text><text x="250" y="950" font-size="8" style="fill:black">numSector: 4</text><rect x="460" y="920" width="200" height="40" style="fill:white;stroke:black;stroke-width:1" /><text x="470" y="930" font-size="10" style="fill:blue">coordenadas</text><path d="M440 940 C460 940 440 940 460 940" style="fill:transparent;stroke:black" /><text x="470" y="940" font-size="8" style="fill:black">longitud: 121.2322036</text><text x="470" y="950" font-size="8" style="fill:black">latitud: 31.3329788</text><text x="470" y="960" font-size="8" style="fill:black">altitud: 1.96</text><rect x="240" y="1020" width="200" height="40" style="fill:white;stroke:black;stroke-width:1" /><text x="250" y="1030" font-size="10" style="fill:blue">tramo</text><path d="M220 40 C240 40 220 1040 240 1040" style="fill:transparent;stroke:black" /><text x="250" y="1040" font-size="8" style="fill:black">distancia: 90</text><text x="250" y="1050" font-size="8" style="fill:black">numSector: 5</text><rect x="460" y="1020" width="200" height="40" style="fill:white;stroke:black;stroke-width:1" /><text x="470" y="1030" font-size="10" style="fill:blue">coordenadas</text><path d="M440 1040 C460 1040 440 1040 460 1040" style="fill:transparent;stroke:black" /><text x="470" y="1040" font-size="8" style="fill:black">longitud: 121.2330834</text><text x="470" y="1050" font-size="8" style="fill:black">latitud: 31.3326856</text><text x="470" y="1060" font-size="8" style="fill:black">altitud: 2.36</text><rect x="240" y="1120" width="200" height="40" style="fill:white;stroke:black;stroke-width:1" /><text x="250" y="1130" font-size="10" style="fill:blue">tramo</text><path d="M220 40 C240 40 220 1140 240 1140" style="fill:transparent;stroke:black" /><text x="250" y="1140" font-size="8" style="fill:black">distancia: 60</text><text x="250" y="1150" font-size="8" style="fill:black">numSector: 6</text><rect x="460" y="1120" width="200" height="40" style="fill:white;stroke:black;stroke-width:1" /><text x="470" y="1130" font-size="10" style="fill:blue">coordenadas</text><path d="M440 1140 C460 1140 440 1140 460 1140" style="fill:transparent;stroke:black" /><text x="470" y="1140" font-size="8" style="fill:black">longitud: 121.2335555</text><text x="470" y="1150" font-size="8" style="fill:black">latitud: 31.3330705</text><text x="470" y="1160" font-size="8" style="fill:black">altitud: 4.07</text><rect x="240" y="1220" width="200" height="40" style="fill:white;stroke:black;stroke-width:1" /><text x="250" y="1230" font-size="10" style="fill:blue">tramo</text><path d="M220 40 C240 40 220 1240 240 1240" style="fill:transparent;stroke:black" /><text x="250" y="1240" font-size="8" style="fill:black">distancia: 1410</text><text x="250" y="1250" font-size="8" style="fill:black">numSector: 7</text><rect x="460" y="1220" width="200" height="40" style="fill:white;stroke:black;stroke-width:1" /><text x="470" y="1230" font-size="10" style="fill:blue">coordenadas</text><path d="M440 1240 C460 1240 440 1240 460 1240" style="fill:transparent;stroke:black" /><text x="470" y="1240" font-size="8" style="fill:black">longitud: 121.2255732</text><text x="470" y="1250" font-size="8" style="fill:black">latitud: 31.3437002</text><text x="470" y="1260" font-size="8" style="fill:black">altitud: 4.37</text><rect x="240" y="1320" width="200" height="40" style="fill:white;stroke:black;stroke-width:1" /><text x="250" y="1330" font-size="10" style="fill:blue">tramo</text><path d="M220 40 C240 40 220 1340 240 1340" style="fill:transparent;stroke:black" /><text x="250" y="1340" font-size="8" style="fill:black">distancia: 90</text><text x="250" y="1350" font-size="8" style="fill:black">numSector: 8</text><rect x="460" y="1320" width="200" height="40" style="fill:white;stroke:black;stroke-width:1" /><text x="470" y="1330" font-size="10" style="fill:blue">coordenadas</text><path d="M440 1340 C460 1340 440 1340 460 1340" style="fill:transparent;stroke:black" /><text x="470" y="1340" font-size="8" style="fill:black">longitud: 121.2246934</text><text x="470" y="1350" font-size="8" style="fill:black">latitud: 31.3439751</text><text x="470" y="1360" font-size="8" style="fill:black">altitud: 3.95</text><rect x="240" y="1420" width="200" height="40" style="fill:white;stroke:black;stroke-width:1" /><text x="250" y="1430" font-size="10" style="fill:blue">tramo</text><path d="M220 40 C240 40 220 1440 240 1440" style="fill:transparent;stroke:black" /><text x="250" y="1440" font-size="8" style="fill:black">distancia: 80</text><text x="250" y="1450" font-size="8" style="fill:black">numSector: 9</text><rect x="460" y="1420" width="200" height="40" style="fill:white;stroke:black;stroke-width:1" /><text x="470" y="1430" font-size="10" style="fill:blue">coordenadas</text><path d="M440 1440 C460 1440 440 1440 460 1440" style="fill:transparent;stroke:black" /><text x="470" y="1440" font-size="8" style="fill:black">longitud: 121.2238137</text><text x="470" y="1450" font-size="8" style="fill:black">latitud: 31.3439385</text><text x="470" y="1460" font-size="8" style="fill:black">altitud: 4.4</text><rect x="240" y="1520" width="200" height="40" style="fill:white;stroke:black;stroke-width:1" /><text x="250" y="1530" font-size="10" style="fill:blue">tramo</text><path d="M220 40 C240 40 220 1540 240 1540" style="fill:transparent;stroke:black" /><text x="250" y="1540" font-size="8" style="fill:black">distancia: 70</text><text x="250" y="1550" font-size="8" style="fill:black">numSector: 10</text><rect x="460" y="1520" width="200" height="40" style="fill:white;stroke:black;stroke-width:1" /><text x="470" y="1530" font-size="10" style="fill:blue">coordenadas</text><path d="M440 1540 C460 1540 440 1540 460 1540" style="fill:transparent;stroke:black" /><text x="470" y="1540" font-size="8" style="fill:black">longitud: 121.2230627</text><text x="470" y="1550" font-size="8" style="fill:black">latitud: 31.3434254</text><text x="470" y="1560" font-size="8" style="fill:black">altitud: 4.78</text><rect x="240" y="1620" width="200" height="40" style="fill:white;stroke:black;stroke-width:1" /><text x="250" y="1630" font-size="10" style="fill:blue">tramo</text><path d="M220 40 C240 40 220 1640 240 1640" style="fill:transparent;stroke:black" /><text x="250" y="1640" font-size="8" style="fill:black">distancia: 170</text><text x="250" y="1650" font-size="8" style="fill:black">numSector: 11</text><rect x="460" y="1620" width="200" height="40" style="fill:white;stroke:black;stroke-width:1" /><text x="470" y="1630" font-size="10" style="fill:blue">coordenadas</text><path d="M440 1640 C460 1640 440 1640 460 1640" style="fill:transparent;stroke:black" /><text x="470" y="1640" font-size="8" style="fill:black">longitud: 121.2229554</text><text x="470" y="1650" font-size="8" style="fill:black">latitud: 31.3424907</text><text x="470" y="1660" font-size="8" style="fill:black">altitud: 4.7</text><rect x="240" y="1720" width="200" height="40" style="fill:white;stroke:black;stroke-width:1" /><text x="250" y="1730" font-size="10" style="fill:blue">tramo</text><path d="M220 40 C240 40 220 1740 240 1740" style="fill:transparent;stroke:black" /><text x="250" y="1740" font-size="8" style="fill:black">distancia: 80</text><text x="250" y="1750" font-size="8" style="fill:black">numSector: 12</text><rect x="460" y="1720" width="200" height="40" style="fill:white;stroke:black;stroke-width:1" /><text x="470" y="1730" font-size="10" style="fill:blue">coordenadas</text><path d="M440 1740 C460 1740 440 1740 460 1740" style="fill:transparent;stroke:black" /><text x="470" y="1740" font-size="8" style="fill:black">longitud: 121.2233416</text><text x="470" y="1750" font-size="8" style="fill:black">latitud: 31.3418859</text><text x="470" y="1760" font-size="8" style="fill:black">altitud: 3.35</text><rect x="240" y="1820" width="200" height="40" style="fill:white;stroke:black;stroke-width:1" /><text x="250" y="1830" font-size="10" style="fill:blue">tramo</text><path d="M220 40 C240 40 220 1840 240 1840" style="fill:transparent;stroke:black" /><text x="250" y="1840" font-size="8" style="fill:black">distancia: 60</text><text x="250" y="1850" font-size="8" style="fill:black">numSector: 13</text><rect x="460" y="1820" width="200" height="40" style="fill:white;stroke:black;stroke-width:1" /><text x="470" y="1830" font-size="10" style="fill:blue">coordenadas</text><path d="M440 1840 C460 1840 440 1840 460 1840" style="fill:transparent;stroke:black" /><text x="470" y="1840" font-size="8" style="fill:black">longitud: 121.2239424</text><text x="470" y="1850" font-size="8" style="fill:black">latitud: 31.341666</text><text x="470" y="1860" font-size="8" style="fill:black">altitud: 3.2</text><rect x="240" y="1920" width="200" height="40" style="fill:white;stroke:black;stroke-width:1" /><text x="250" y="1930" font-size="10" style="fill:blue">tramo</text><path d="M220 40 C240 40 220 1940 240 1940" style="fill:transparent;stroke:black" /><text x="250" y="1940" font-size="8" style="fill:black">distancia: 70</text><text x="250" y="1950" font-size="8" style="fill:black">numSector: 14</text><rect x="460" y="1920" width="200" height="40" style="fill:white;stroke:black;stroke-width:1" /><text x="470" y="1930" font-size="10" style="fill:blue">coordenadas</text><path d="M440 1940 C460 1940 440 1940 460 1940" style="fill:transparent;stroke:black" /><text x="470" y="1940" font-size="8" style="fill:black">longitud: 121.2245647</text><text x="470" y="1950" font-size="8" style="fill:black">latitud: 31.3419959</text><text x="470" y="1960" font-size="8" style="fill:black">altitud: 4.06</text><rect x="240" y="2020" width="200" height="40" style="fill:white;stroke:black;stroke-width:1" /><text x="250" y="2030" font-size="10" style="fill:blue">tramo</text><path d="M220 40 C240 40 220 2040 240 2040" style="fill:transparent;stroke:black" /><text x="250" y="2040" font-size="8" style="fill:black">distancia: 420</text><text x="250" y="2050" font-size="8" style="fill:black">numSector: 15</text><rect x="460" y="2020" width="200" height="40" style="fill:white;stroke:black;stroke-width:1" /><text x="470" y="2030" font-size="10" style="fill:blue">coordenadas</text><path d="M440 2040 C460 2040 440 2040 460 2040" style="fill:transparent;stroke:black" /><text x="470" y="2040" font-size="8" style="fill:black">longitud: 121.2268177</text><text x="470" y="2050" font-size="8" style="fill:black">latitud: 31.3387337</text><text x="470" y="2060" font-size="8" style="fill:black">altitud: 4.24</text><rect x="240" y="2120" width="200" height="40" style="fill:white;stroke:black;stroke-width:1" /><text x="250" y="2130" font-size="10" style="fill:blue">tramo</text><path d="M220 40 C240 40 220 2140 240 2140" style="fill:transparent;stroke:black" /><text x="250" y="2140" font-size="8" style="fill:black">distancia: 50</text><text x="250" y="2150" font-size="8" style="fill:black">numSector: 16</text><rect x="460" y="2120" width="200" height="40" style="fill:white;stroke:black;stroke-width:1" /><text x="470" y="2130" font-size="10" style="fill:blue">coordenadas</text><path d="M440 2140 C460 2140 440 2140 460 2140" style="fill:transparent;stroke:black" /><text x="470" y="2140" font-size="8" style="fill:black">longitud: 121.22641</text><text x="470" y="2150" font-size="8" style="fill:black">latitud: 31.3384038</text><text x="470" y="2160" font-size="8" style="fill:black">altitud: 5.18</text><rect x="240" y="2220" width="200" height="40" style="fill:white;stroke:black;stroke-width:1" /><text x="250" y="2230" font-size="10" style="fill:blue">tramo</text><path d="M220 40 C240 40 220 2240 240 2240" style="fill:transparent;stroke:black" /><text x="250" y="2240" font-size="8" style="fill:black">distancia: 70</text><text x="250" y="2250" font-size="8" style="fill:black">numSector: 17</text><rect x="460" y="2220" width="200" height="40" style="fill:white;stroke:black;stroke-width:1" /><text x="470" y="2230" font-size="10" style="fill:blue">coordenadas</text><path d="M440 2240 C460 2240 440 2240 460 2240" style="fill:transparent;stroke:black" /><text x="470" y="2240" font-size="8" style="fill:black">longitud: 121.2261096</text><text x="470" y="2250" font-size="8" style="fill:black">latitud: 31.3389903</text><text x="470" y="2260" font-size="8" style="fill:black">altitud: 4.39</text><rect x="240" y="2320" width="200" height="40" style="fill:white;stroke:black;stroke-width:1" /><text x="250" y="2330" font-size="10" style="fill:blue">tramo</text><path d="M220 40 C240 40 220 2340 240 2340" style="fill:transparent;stroke:black" /><text x="250" y="2340" font-size="8" style="fill:black">distancia: 70</text><text x="250" y="2350" font-size="8" style="fill:black">numSector: 18</text><rect x="460" y="2320" width="200" height="40" style="fill:white;stroke:black;stroke-width:1" /><text x="470" y="2330" font-size="10" style="fill:blue">coordenadas</text><path d="M440 2340 C460 2340 440 2340 460 2340" style="fill:transparent;stroke:black" /><text x="470" y="2340" font-size="8" style="fill:black">longitud: 121.2256805</text><text x="470" y="2350" font-size="8" style="fill:black">latitud: 31.3394668</text><text x="470" y="2360" font-size="8" style="fill:black">altitud: 4.39</text><rect x="240" y="2420" width="200" height="40" style="fill:white;stroke:black;stroke-width:1" /><text x="250" y="2430" font-size="10" style="fill:blue">tramo</text><path d="M220 40 C240 40 220 2440 240 2440" style="fill:transparent;stroke:black" /><text x="250" y="2440" font-size="8" style="fill:black">distancia: 80</text><text x="250" y="2450" font-size="8" style="fill:black">numSector: 19</text><rect x="460" y="2420" width="200" height="40" style="fill:white;stroke:black;stroke-width:1" /><text x="470" y="2430" font-size="10" style="fill:blue">coordenadas</text><path d="M440 2440 C460 2440 440 2440 460 2440" style="fill:transparent;stroke:black" /><text x="470" y="2440" font-size="8" style="fill:black">longitud: 121.2248436</text><text x="470" y="2450" font-size="8" style="fill:black">latitud: 31.3396867</text><text x="470" y="2460" font-size="8" style="fill:black">altitud: 4.13</text><rect x="240" y="2520" width="200" height="40" style="fill:white;stroke:black;stroke-width:1" /><text x="250" y="2530" font-size="10" style="fill:blue">tramo</text><path d="M220 40 C240 40 220 2540 240 2540" style="fill:transparent;stroke:black" /><text x="250" y="2540" font-size="8" style="fill:black">distancia: 110</text><text x="250" y="2550" font-size="8" style="fill:black">numSector: 20</text><rect x="460" y="2520" width="200" height="40" style="fill:white;stroke:black;stroke-width:1" /><text x="470" y="2530" font-size="10" style="fill:blue">coordenadas</text><path d="M440 2540 C460 2540 440 2540 460 2540" style="fill:transparent;stroke:black" /><text x="470" y="2540" font-size="8" style="fill:black">longitud: 121.2239424</text><text x="470" y="2550" font-size="8" style="fill:black">latitud: 31.3391369</text><text x="470" y="2560" font-size="8" style="fill:black">altitud: 3.14</text><rect x="240" y="2620" width="200" height="40" style="fill:white;stroke:black;stroke-width:1" /><text x="250" y="2630" font-size="10" style="fill:blue">tramo</text><path d="M220 40 C240 40 220 2640 240 2640" style="fill:transparent;stroke:black" /><text x="250" y="2640" font-size="8" style="fill:black">distancia: 80</text><text x="250" y="2650" font-size="8" style="fill:black">numSector: 21</text><rect x="460" y="2620" width="200" height="40" style="fill:white;stroke:black;stroke-width:1" /><text x="470" y="2630" font-size="10" style="fill:blue">coordenadas</text><path d="M440 2640 C460 2640 440 2640 460 2640" style="fill:transparent;stroke:black" /><text x="470" y="2640" font-size="8" style="fill:black">longitud: 121.2237493</text><text x="470" y="2650" font-size="8" style="fill:black">latitud: 31.3384588</text><text x="470" y="2660" font-size="8" style="fill:black">altitud: 3.11</text><rect x="240" y="2720" width="200" height="40" style="fill:white;stroke:black;stroke-width:1" /><text x="250" y="2730" font-size="10" style="fill:blue">tramo</text><path d="M220 40 C240 40 220 2740 240 2740" style="fill:transparent;stroke:black" /><text x="250" y="2740" font-size="8" style="fill:black">distancia: 90</text><text x="250" y="2750" font-size="8" style="fill:black">numSector: 22</text><rect x="460" y="2720" width="200" height="40" style="fill:white;stroke:black;stroke-width:1" /><text x="470" y="2730" font-size="10" style="fill:blue">coordenadas</text><path d="M440 2740 C460 2740 440 2740 460 2740" style="fill:transparent;stroke:black" /><text x="470" y="2740" font-size="8" style="fill:black">longitud: 121.2232343</text><text x="470" y="2750" font-size="8" style="fill:black">latitud: 31.3377807</text><text x="470" y="2760" font-size="8" style="fill:black">altitud: 4.12</text><rect x="240" y="2820" width="200" height="40" style="fill:white;stroke:black;stroke-width:1" /><text x="250" y="2830" font-size="10" style="fill:blue">tramo</text><path d="M220 40 C240 40 220 2840 240 2840" style="fill:transparent;stroke:black" /><text x="250" y="2840" font-size="8" style="fill:black">distancia: 70</text><text x="250" y="2850" font-size="8" style="fill:black">numSector: 23</text><rect x="460" y="2820" width="200" height="40" style="fill:white;stroke:black;stroke-width:1" /><text x="470" y="2830" font-size="10" style="fill:blue">coordenadas</text><path d="M440 2840 C460 2840 440 2840 460 2840" style="fill:transparent;stroke:black" /><text x="470" y="2840" font-size="8" style="fill:black">longitud: 121.2224618</text><text x="470" y="2850" font-size="8" style="fill:black">latitud: 31.3377807</text><text x="470" y="2860" font-size="8" style="fill:black">altitud: 1.97</text><rect x="240" y="2920" width="200" height="40" style="fill:white;stroke:black;stroke-width:1" /><text x="250" y="2930" font-size="10" style="fill:blue">tramo</text><path d="M220 40 C240 40 220 2940 240 2940" style="fill:transparent;stroke:black" /><text x="250" y="2940" font-size="8" style="fill:black">distancia: 70</text><text x="250" y="2950" font-size="8" style="fill:black">numSector: 24</text><rect x="460" y="2920" width="200" height="40" style="fill:white;stroke:black;stroke-width:1" /><text x="470" y="2930" font-size="10" style="fill:blue">coordenadas</text><path d="M440 2940 C460 2940 440 2940 460 2940" style="fill:transparent;stroke:black" /><text x="470" y="2940" font-size="8" style="fill:black">longitud: 121.2219683</text><text x="470" y="2950" font-size="8" style="fill:black">latitud: 31.3382389</text><text x="470" y="2960" font-size="8" style="fill:black">altitud: 1.96</text><rect x="240" y="3020" width="200" height="40" style="fill:white;stroke:black;stroke-width:1" /><text x="250" y="3030" font-size="10" style="fill:blue">tramo</text><path d="M220 40 C240 40 220 3040 240 3040" style="fill:transparent;stroke:black" /><text x="250" y="3040" font-size="8" style="fill:black">distancia: 160</text><text x="250" y="3050" font-size="8" style="fill:black">numSector: 25</text><rect x="460" y="3020" width="200" height="40" style="fill:white;stroke:black;stroke-width:1" /><text x="470" y="3030" font-size="10" style="fill:blue">coordenadas</text><path d="M440 3040 C460 3040 440 3040 460 3040" style="fill:transparent;stroke:black" /><text x="470" y="3040" font-size="8" style="fill:black">longitud: 121.221346</text><text x="470" y="3050" font-size="8" style="fill:black">latitud: 31.3391552</text><text x="470" y="3060" font-size="8" style="fill:black">altitud: 2.36</text><rect x="240" y="3120" width="200" height="40" style="fill:white;stroke:black;stroke-width:1" /><text x="250" y="3130" font-size="10" style="fill:blue">tramo</text><path d="M220 40 C240 40 220 3140 240 3140" style="fill:transparent;stroke:black" /><text x="250" y="3140" font-size="8" style="fill:black">distancia: 270</text><text x="250" y="3150" font-size="8" style="fill:black">numSector: 26</text><rect x="460" y="3120" width="200" height="40" style="fill:white;stroke:black;stroke-width:1" /><text x="470" y="3130" font-size="10" style="fill:blue">coordenadas</text><path d="M440 3140 C460 3140 440 3140 460 3140" style="fill:transparent;stroke:black" /><text x="470" y="3140" font-size="8" style="fill:black">longitud: 121.2208525</text><text x="470" y="3150" font-size="8" style="fill:black">latitud: 31.3401632</text><text x="470" y="3160" font-size="8" style="fill:black">altitud: 4.07</text><rect x="240" y="3220" width="200" height="40" style="fill:white;stroke:black;stroke-width:1" /><text x="250" y="3230" font-size="10" style="fill:blue">tramo</text><path d="M220 40 C240 40 220 3240 240 3240" style="fill:transparent;stroke:black" /><text x="250" y="3240" font-size="8" style="fill:black">distancia: 90</text><text x="250" y="3250" font-size="8" style="fill:black">numSector: 27</text><rect x="460" y="3220" width="200" height="40" style="fill:white;stroke:black;stroke-width:1" /><text x="470" y="3230" font-size="10" style="fill:blue">coordenadas</text><path d="M440 3240 C460 3240 440 3240 460 3240" style="fill:transparent;stroke:black" /><text x="470" y="3240" font-size="8" style="fill:black">longitud: 121.2202946</text><text x="470" y="3250" font-size="8" style="fill:black">latitud: 31.3407863</text><text x="470" y="3260" font-size="8" style="fill:black">altitud: 4.37</text><rect x="240" y="3320" width="200" height="40" style="fill:white;stroke:black;stroke-width:1" /><text x="250" y="3330" font-size="10" style="fill:blue">tramo</text><path d="M220 40 C240 40 220 3340 240 3340" style="fill:transparent;stroke:black" /><text x="250" y="3340" font-size="8" style="fill:black">distancia: 80</text><text x="250" y="3350" font-size="8" style="fill:black">numSector: 28</text><rect x="460" y="3320" width="200" height="40" style="fill:white;stroke:black;stroke-width:1" /><text x="470" y="3330" font-size="10" style="fill:blue">coordenadas</text><path d="M440 3340 C460 3340 440 3340 460 3340" style="fill:transparent;stroke:black" /><text x="470" y="3340" font-size="8" style="fill:black">longitud: 121.2195436</text><text x="470" y="3350" font-size="8" style="fill:black">latitud: 31.3410429</text><text x="470" y="3360" font-size="8" style="fill:black">altitud: 3.95</text><rect x="240" y="3420" width="200" height="40" style="fill:white;stroke:black;stroke-width:1" /><text x="250" y="3430" font-size="10" style="fill:blue">tramo</text><path d="M220 40 C240 40 220 3440 240 3440" style="fill:transparent;stroke:black" /><text x="250" y="3440" font-size="8" style="fill:black">distancia: 50</text><text x="250" y="3450" font-size="8" style="fill:black">numSector: 29</text><rect x="460" y="3420" width="200" height="40" style="fill:white;stroke:black;stroke-width:1" /><text x="470" y="3430" font-size="10" style="fill:blue">coordenadas</text><path d="M440 3440 C460 3440 440 3440 460 3440" style="fill:transparent;stroke:black" /><text x="470" y="3440" font-size="8" style="fill:black">longitud: 121.2190501</text><text x="470" y="3450" font-size="8" style="fill:black">latitud: 31.340823</text><text x="470" y="3460" font-size="8" style="fill:black">altitud: 4.4</text><rect x="240" y="3520" width="200" height="40" style="fill:white;stroke:black;stroke-width:1" /><text x="250" y="3530" font-size="10" style="fill:blue">tramo</text><path d="M220 40 C240 40 220 3540 240 3540" style="fill:transparent;stroke:black" /><text x="250" y="3540" font-size="8" style="fill:black">distancia: 90</text><text x="250" y="3550" font-size="8" style="fill:black">numSector: 30</text><rect x="460" y="3520" width="200" height="40" style="fill:white;stroke:black;stroke-width:1" /><text x="470" y="3530" font-size="10" style="fill:blue">coordenadas</text><path d="M440 3540 C460 3540 440 3540 460 3540" style="fill:transparent;stroke:black" /><text x="470" y="3540" font-size="8" style="fill:black">longitud: 121.2191574</text><text x="470" y="3550" font-size="8" style="fill:black">latitud: 31.33998</text><text x="470" y="3560" font-size="8" style="fill:black">altitud: 4.78</text><rect x="240" y="3620" width="200" height="40" style="fill:white;stroke:black;stroke-width:1" /><text x="250" y="3630" font-size="10" style="fill:blue">tramo</text><path d="M220 40 C240 40 220 3640 240 3640" style="fill:transparent;stroke:black" /><text x="250" y="3640" font-size="8" style="fill:black">distancia: 260</text><text x="250" y="3650" font-size="8" style="fill:black">numSector: 31</text><rect x="460" y="3620" width="200" height="40" style="fill:white;stroke:black;stroke-width:1" /><text x="470" y="3630" font-size="10" style="fill:blue">coordenadas</text><path d="M440 3640 C460 3640 440 3640 460 3640" style="fill:transparent;stroke:black" /><text x="470" y="3640" font-size="8" style="fill:black">longitud: 121.2201873</text><text x="470" y="3650" font-size="8" style="fill:black">latitud: 31.3378174</text><text x="470" y="3660" font-size="8" style="fill:black">altitud: 4.7</text><rect x="240" y="3720" width="200" height="40" style="fill:white;stroke:black;stroke-width:1" /><text x="250" y="3730" font-size="10" style="fill:blue">tramo</text><path d="M220 40 C240 40 220 3740 240 3740" style="fill:transparent;stroke:black" /><text x="250" y="3740" font-size="8" style="fill:black">distancia: 280</text><text x="250" y="3750" font-size="8" style="fill:black">numSector: 32</text><rect x="460" y="3720" width="200" height="40" style="fill:white;stroke:black;stroke-width:1" /><text x="470" y="3730" font-size="10" style="fill:blue">coordenadas</text><path d="M440 3740 C460 3740 440 3740 460 3740" style="fill:transparent;stroke:black" /><text x="470" y="3740" font-size="8" style="fill:black">longitud: 121.22214</text><text x="470" y="3750" font-size="8" style="fill:black">latitud: 31.3359846</text><text x="470" y="3760" font-size="8" style="fill:black">altitud: 3.35</text><rect x="240" y="3820" width="200" height="40" style="fill:white;stroke:black;stroke-width:1" /><text x="250" y="3830" font-size="10" style="fill:blue">tramo</text><path d="M220 40 C240 40 220 3840 240 3840" style="fill:transparent;stroke:black" /><text x="250" y="3840" font-size="8" style="fill:black">distancia: 40</text><text x="250" y="3850" font-size="8" style="fill:black">numSector: 33</text><rect x="460" y="3820" width="200" height="40" style="fill:white;stroke:black;stroke-width:1" /><text x="470" y="3830" font-size="10" style="fill:blue">coordenadas</text><path d="M440 3840 C460 3840 440 3840 460 3840" style="fill:transparent;stroke:black" /><text x="470" y="3840" font-size="8" style="fill:black">longitud: 121.2221614</text><text x="470" y="3850" font-size="8" style="fill:black">latitud: 31.3356181</text><text x="470" y="3860" font-size="8" style="fill:black">altitud: 3.2</text><rect x="240" y="3920" width="200" height="40" style="fill:white;stroke:black;stroke-width:1" /><text x="250" y="3930" font-size="10" style="fill:blue">tramo</text><path d="M220 40 C240 40 220 3940 240 3940" style="fill:transparent;stroke:black" /><text x="250" y="3940" font-size="8" style="fill:black">distancia: 50</text><text x="250" y="3950" font-size="8" style="fill:black">numSector: 34</text><rect x="460" y="3920" width="200" height="40" style="fill:white;stroke:black;stroke-width:1" /><text x="470" y="3930" font-size="10" style="fill:blue">coordenadas</text><path d="M440 3940 C460 3940 440 3940 460 3940" style="fill:transparent;stroke:black" /><text x="470" y="3940" font-size="8" style="fill:black">longitud: 121.2219898</text><text x="470" y="3950" font-size="8" style="fill:black">latitud: 31.3351965</text><text x="470" y="3960" font-size="8" style="fill:black">altitud: 4.06</text><rect x="240" y="4020" width="200" height="40" style="fill:white;stroke:black;stroke-width:1" /><text x="250" y="4030" font-size="10" style="fill:blue">tramo</text><path d="M220 40 C240 40 220 4040 240 4040" style="fill:transparent;stroke:black" /><text x="250" y="4040" font-size="8" style="fill:black">distancia: 30</text><text x="250" y="4050" font-size="8" style="fill:black">numSector: 35</text><rect x="460" y="4020" width="200" height="40" style="fill:white;stroke:black;stroke-width:1" /><text x="470" y="4030" font-size="10" style="fill:blue">coordenadas</text><path d="M440 4040 C460 4040 440 4040 460 4040" style="fill:transparent;stroke:black" /><text x="470" y="4040" font-size="8" style="fill:black">longitud: 121.2217323</text><text x="470" y="4050" font-size="8" style="fill:black">latitud: 31.3353065</text><text x="470" y="4060" font-size="8" style="fill:black">altitud: 4.24</text><rect x="240" y="4120" width="200" height="40" style="fill:white;stroke:black;stroke-width:1" /><text x="250" y="4130" font-size="10" style="fill:blue">tramo</text><path d="M220 40 C240 40 220 4140 240 4140" style="fill:transparent;stroke:black" /><text x="250" y="4140" font-size="8" style="fill:black">distancia: 40</text><text x="250" y="4150" font-size="8" style="fill:black">numSector: 36</text><rect x="460" y="4120" width="200" height="40" style="fill:white;stroke:black;stroke-width:1" /><text x="470" y="4130" font-size="10" style="fill:blue">coordenadas</text><path d="M440 4140 C460 4140 440 4140 460 4140" style="fill:transparent;stroke:black" /><text x="470" y="4140" font-size="8" style="fill:black">longitud: 121.2219039</text><text x="470" y="4150" font-size="8" style="fill:black">latitud: 31.3356364</text><text x="470" y="4160" font-size="8" style="fill:black">altitud: 5.18</text><rect x="240" y="4220" width="200" height="40" style="fill:white;stroke:black;stroke-width:1" /><text x="250" y="4230" font-size="10" style="fill:blue">tramo</text><path d="M220 40 C240 40 220 4240 240 4240" style="fill:transparent;stroke:black" /><text x="250" y="4240" font-size="8" style="fill:black">distancia: 50</text><text x="250" y="4250" font-size="8" style="fill:black">numSector: 37</text><rect x="460" y="4220" width="200" height="40" style="fill:white;stroke:black;stroke-width:1" /><text x="470" y="4230" font-size="10" style="fill:blue">coordenadas</text><path d="M440 4240 C460 4240 440 4240 460 4240" style="fill:transparent;stroke:black" /><text x="470" y="4240" font-size="8" style="fill:black">longitud: 121.2217537</text><text x="470" y="4250" font-size="8" style="fill:black">latitud: 31.3360579</text><text x="470" y="4260" font-size="8" style="fill:black">altitud: 4.39</text><rect x="240" y="4320" width="200" height="40" style="fill:white;stroke:black;stroke-width:1" /><text x="250" y="4330" font-size="10" style="fill:blue">tramo</text><path d="M220 40 C240 40 220 4340 240 4340" style="fill:transparent;stroke:black" /><text x="250" y="4340" font-size="8" style="fill:black">distancia: 60</text><text x="250" y="4350" font-size="8" style="fill:black">numSector: 38</text><rect x="460" y="4320" width="200" height="40" style="fill:white;stroke:black;stroke-width:1" /><text x="470" y="4330" font-size="10" style="fill:blue">coordenadas</text><path d="M440 4340 C460 4340 440 4340 460 4340" style="fill:transparent;stroke:black" /><text x="470" y="4340" font-size="8" style="fill:black">longitud: 121.2212817</text><text x="470" y="4350" font-size="8" style="fill:black">latitud: 31.3363695</text><text x="470" y="4360" font-size="8" style="fill:black">altitud: 4.39</text><rect x="240" y="4420" width="200" height="40" style="fill:white;stroke:black;stroke-width:1" /><text x="250" y="4430" font-size="10" style="fill:blue">tramo</text><path d="M220 40 C240 40 220 4440 240 4440" style="fill:transparent;stroke:black" /><text x="250" y="4440" font-size="8" style="fill:black">distancia: 80</text><text x="250" y="4450" font-size="8" style="fill:black">numSector: 39</text><rect x="460" y="4420" width="200" height="40" style="fill:white;stroke:black;stroke-width:1" /><text x="470" y="4430" font-size="10" style="fill:blue">coordenadas</text><path d="M440 4440 C460 4440 440 4440 460 4440" style="fill:transparent;stroke:black" /><text x="470" y="4440" font-size="8" style="fill:black">longitud: 121.2204234</text><text x="470" y="4450" font-size="8" style="fill:black">latitud: 31.3362779</text><text x="470" y="4460" font-size="8" style="fill:black">altitud: 4.13</text><rect x="240" y="4520" width="200" height="40" style="fill:white;stroke:black;stroke-width:1" /><text x="250" y="4530" font-size="10" style="fill:blue">tramo</text><path d="M220 40 C240 40 220 4540 240 4540" style="fill:transparent;stroke:black" /><text x="250" y="4540" font-size="8" style="fill:black">distancia: 100</text><text x="250" y="4550" font-size="8" style="fill:black">numSector: 40</text><rect x="460" y="4520" width="200" height="40" style="fill:white;stroke:black;stroke-width:1" /><text x="470" y="4530" font-size="10" style="fill:blue">coordenadas</text><path d="M440 4540 C460 4540 440 4540 460 4540" style="fill:transparent;stroke:black" /><text x="470" y="4540" font-size="8" style="fill:black">longitud: 121.2198011</text><text x="470" y="4550" font-size="8" style="fill:black">latitud: 31.3355997</text><text x="470" y="4560" font-size="8" style="fill:black">altitud: 3.14</text><rect x="240" y="4620" width="200" height="40" style="fill:white;stroke:black;stroke-width:1" /><text x="250" y="4630" font-size="10" style="fill:blue">tramo</text><path d="M220 40 C240 40 220 4640 240 4640" style="fill:transparent;stroke:black" /><text x="250" y="4640" font-size="8" style="fill:black">distancia: 120</text><text x="250" y="4650" font-size="8" style="fill:black">numSector: 41</text><rect x="460" y="4620" width="200" height="40" style="fill:white;stroke:black;stroke-width:1" /><text x="470" y="4630" font-size="10" style="fill:blue">coordenadas</text><path d="M440 4640 C460 4640 440 4640 460 4640" style="fill:transparent;stroke:black" /><text x="470" y="4640" font-size="8" style="fill:black">longitud: 121.2199727</text><text x="470" y="4650" font-size="8" style="fill:black">latitud: 31.3345367</text><text x="470" y="4660" font-size="8" style="fill:black">altitud: 3.14</text><rect x="240" y="4720" width="200" height="40" style="fill:white;stroke:black;stroke-width:1" /><text x="250" y="4730" font-size="10" style="fill:blue">tramo</text><path d="M220 40 C240 40 220 4740 240 4740" style="fill:transparent;stroke:black" /><text x="250" y="4740" font-size="8" style="fill:black">distancia: 90</text><text x="250" y="4750" font-size="8" style="fill:black">numSector: 42</text><rect x="460" y="4720" width="200" height="40" style="fill:white;stroke:black;stroke-width:1" /><text x="470" y="4730" font-size="10" style="fill:blue">coordenadas</text><path d="M440 4740 C460 4740 440 4740 460 4740" style="fill:transparent;stroke:black" /><text x="470" y="4740" font-size="8" style="fill:black">longitud: 121.2206809</text><text x="470" y="4750" font-size="8" style="fill:black">latitud: 31.3340235</text><text x="470" y="4760" font-size="8" style="fill:black">altitud: 3.14</text><rect x="240" y="4820" width="200" height="40" style="fill:white;stroke:black;stroke-width:1" /><text x="250" y="4830" font-size="10" style="fill:blue">tramo</text><path d="M220 40 C240 40 220 4840 240 4840" style="fill:transparent;stroke:black" /><text x="250" y="4840" font-size="8" style="fill:black">distancia: 450</text><text x="250" y="4850" font-size="8" style="fill:black">numSector: 43</text><rect x="460" y="4820" width="200" height="40" style="fill:white;stroke:black;stroke-width:1" /><text x="470" y="4830" font-size="10" style="fill:blue">coordenadas</text><path d="M440 4840 C460 4840 440 4840 460 4840" style="fill:transparent;stroke:black" /><text x="470" y="4840" font-size="8" style="fill:black">longitud: 121.2252299</text><text x="470" y="4850" font-size="8" style="fill:black">latitud: 31.3349949</text><text x="470" y="4860" font-size="8" style="fill:black">altitud: 3.14</text></svg>