<?xml version="1.0" encoding="utf-8"?><svg width="auto" height="4870" style="overflow:visible " version="1.1" xmlns="http://www.w3.org/2000/svg"><rect x="20" y="20" width="200" height="40" style="fill:white;stroke:black;stroke-width:1" /><text x="30" y="30" font-size="10" style="fill:blue">circuito</text><rect x="240" y="20" width="200" height="40" style="fill:white;stroke:black;stroke-width:1" /><text x="250" y="30" font-size="10" style="fill:blue">nombre</text><path d="M220 40 C240 40 220 40 240 40" style="fill:transparent;stroke:black" /><rect x="306" y="20" width="137" height="40" style="fill:green;stroke:black;stroke-width:1" /><text x="316" y="30" font-size="8" style="fill:white">Sachsenring</text><rect x="240" y="70" width="200" height="40" style="fill:white;stroke:black;stroke-width:1" /><text x="250" y="80" font-size="10" style="fill:blue">fechaCarrera25</text><path d="M220 40 C240 40 220 90 240 90" style="fill:transparent;stroke:black" /><rect x="306" y="70" width="137" height="40" style="fill:green;stroke:black;stroke-width:1" /><text x="316" y="80" font-size="8" style="fill:white">13/07/2025</text><rect x="240" y="120" width="200" height="40" style="fill:white;stroke:black;stroke-width:1" /><text x="250" y="130" font-size="10" style="fill:blue">horaEspInicio</text><path d="M220 40 C240 40 220 140 240 140" style="fill:transparent;stroke:black" /><rect x="306" y="120" width="137" height="40" style="fill:green;stroke:black;stroke-width:1" /><text x="316" y="130" font-size="8" style="fill:white">14:00</text><rect x="240" y="170" width="200" height="40" style="fill:white;stroke:black;stroke-width:1" /><text x="250" y="180" font-size="10" style="fill:blue">numVueltas</text><path d="M220 40 C240 40 220 190 240 190" style="fill:transparent;stroke:black" /><rect x="306" y="170" width="137" height="40" style="fill:green;stroke:black;stroke-width:1" /><text x="316" y="180" font-size="8" style="fill:white">30</text><rect x="240" y="220" width="200" height="40" style="fill:white;stroke:black;stroke-width:1" /><text x="250" y="230" font-size="10" style="fill:blue">localidad</text><path d="M220 40 C240 40 220 240 240 240" style="fill:transparent;stroke:black" /><rect x="306" y="220" width="137" height="40" style="fill:green;stroke:black;stroke-width:1" /><text x="316" y="230" font-size="8" style="fill:white">Oberlungwitz</text><rect x="240" y="270" width="200" height="40" style="fill:white;stroke:black;stroke-width:1" /><text x="250" y="280" font-size="10" style="fill:blue">pais</text><path d="M220 40 C240 40 220 290 240 290" style="fill:transparent;stroke:black" /><rect x="306" y="270" width="137" height="40" style="fill:green;stroke:black;stroke-width:1" /><text x="316" y="280" font-size="8" style="fill:white">Alemania</text><rect x="240" y="320" width="200" height="40" style="fill:white;stroke:black;stroke-width:1" /><text x="250" y="330" font-size="10" style="fill:blue">patrocinador</text><path d="M220 40 C240 40 220 340 240 340" style="fill:transparent;stroke:black" /><rect x="306" y="320" width="137" height="40" style="fill:green;stroke:black;stroke-width:1" /><text x="316" y="330" font-size="8" style="fill:white">Liqui Moly</text><rect x="240" y="370" width="200" height="40" style="fill:white;stroke:black;stroke-width:1" /><text x="250" y="380" font-size="10" style="fill:blue">longitudCircuito</text><path d="M220 40 C240 40 220 390 240 390" style="fill:transparent;stroke:black" /><text x="250" y="390" font-size="8" style="fill:black">unidades: metros</text><rect x="306" y="370" width="137" height="40" style="fill:green;stroke:black;stroke-width:1" /><text x="316" y="380" font-size="8" style="fill:white">3671</text><rect x="240" y="420" width="200" height="40" style="fill:white;stroke:black;stroke-width:1" /><text x="250" y="430" font-size="10" style="fill:blue">anchuraMedia</text><path d="M220 40 C240 40 220 440 240 440" style="fill:transparent;stroke:black" /><text x="250" y="440" font-size="8" style="fill:black">unidades: metros</text><rect x="306" y="420" width="137" height="40" style="fill:green;stroke:black;stroke-width:1" /><text x="316" y="430" font-size="8" style="fill:white">13</text><rect x="240" y="470" width="200" height="40" style="fill:white;stroke:black;stroke-width:1" /><text x="250" y="480" font-size="10" style="fill:blue">referencias</text><path d="M220 40 C240 40 220 490 240 490" style="fill:transparent;stroke:black" /><rect x="460" y="470" width="200" height="40" style="fill:white;stroke:black;stroke-width:1" /><text x="470" y="480" font-size="10" style="fill:blue">referencia</text><path d="M440 490 C460 490 440 490 460 490" style="fill:transparent;stroke:black" /><rect x="526" y="470" width="137" height="40" style="fill:green;stroke:black;stroke-width:1" /><text x="536" y="480" font-size="8" style="fill:white">https://es.wikipedia.org/wiki/Gran_Premio_de_Alemania_de_Motociclismo_de_2025</text><rect x="460" y="520" width="200" height="40" style="fill:white;stroke:black;stroke-width:1" /><text x="470" y="530" font-size="10" style="fill:blue">referencia</text><path d="M440 490 C460 490 440 540 460 540" style="fill:transparent;stroke:black" /><rect x="526" y="520" width="137" height="40" style="fill:green;stroke:black;stroke-width:1" /><text x="536" y="530" font-size="8" style="fill:white">https://es.wikipedia.org/wiki/Sachsenring</text><rect x="460" y="570" width="200" height="40" style="fill:white;stroke:black;stroke-width:1" /><text x="470" y="580" font-size="10" style="fill:blue">referencia</text><path d="M440 490 C460 490 440 590 460 590" style="fill:transparent;stroke:black" /><rect x="526" y="570" width="137" height="40" style="fill:green;stroke:black;stroke-width:1" /><text x="536" y="580" font-size="8" style="fill:white">https://www.motorpasionmoto.com/motogp/asi-es-sachsenring-la-pista-mas-corta-de-todo-el-calendario</text><rect x="240" y="670" width="200" height="40" style="fill:white;stroke:black;stroke-width:1" /><text x="250" y="680" font-size="10" style="fill:blue">foto</text><path d="M220 40 C240 40 220 690 240 690" style="fill:transparent;stroke:black" /><rect x="306" y="670" width="137" height="40" style="fill:green;stroke:black;stroke-width:1" /><text x="316" y="680" font-size="8" style="fill:white">Sachsenring.jpg</text><rect x="240" y="720" width="200" height="40" style="fill:white;stroke:black;stroke-width:1" /><text x="250" y="730" font-size="10" style="fill:blue">foto</text><path d="M220 40 C240 40 220 740 240 740" style="fill:transparent;stroke:black" /><rect x="306" y="720" width="137" height="40" style="fill:green;stroke:black;stroke-width:1" /><text x="316" y="730" font-size="8" style="fill:white">Sachsenring_mapa.jpg</text><rect x="240" y="770" width="200" height="40" style="fill:white;stroke:black;stroke-width:1" /><text x="250" y="780" font-size="10" style="fill:blue">foto</text><path d="M220 40 C240 40 220 790 240 790" style="fill:transparent;stroke:black" /><rect x="306" y="770" width="137" height="40" style="fill:green;stroke:black;stroke-width:1" /><text x="316" y="780" font-size="8" style="fill:white">Sachsenring_meta.jpg</text><rect x="240" y="820" width="200" height="40" style="fill:white;stroke:black;stroke-width:1" /><text x="250" y="830" font-size="10" style="fill:blue">video</text><path d="M220 40 C240 40 220 840 240 840" style="fill:transparent;stroke:black" /><rect x="306" y="820" width="137" height="40" style="fill:green;stroke:black;stroke-width:1" /><text x="316" y="830" font-size="8" style="fill:white">Sachsenring.mp4</text><rect x="240" y="870" width="200" height="40" style="fill:white;stroke:black;stroke-width:1" /><text x="250" y="880" font-size="10" style="fill:blue">coordenadas</text><path d="M220 40 C240 40 220 890 240 890" style="fill:transparent;stroke:black" /><text x="250" y="890" font-size="8" style="fill:black">longitud: 12.6855358</text><text x="250" y="900" font-size="8" style="fill:black">latitud: 50.7906317</text><text x="250" y="910" font-size="8" style="fill:black">altitud: 328.7178623</text><rect x="240" y="920" width="200" height="40" style="fill:white;stroke:black;stroke-width:1" /><text x="250" y="930" font-size="10" style="fill:blue">tramos</text><path d="M220 40 C240 40 220 940 240 940" style="fill:transparent;stroke:black" /><rect x="460" y="920" width="200" height="40" style="fill:white;stroke:black;stroke-width:1" /><text x="470" y="930" font-size="10" style="fill:blue">tramo</text><path d="M440 940 C460 940 440 940 460 940" style="fill:transparent;stroke:black" /><text x="470" y="940" font-size="8" style="fill:black">numSector: 1</text><rect x="680" y="920" width="200" height="40" style="fill:white;stroke:black;stroke-width:1" /><text x="690" y="930" font-size="10" style="fill:blue">distancia</text><path d="M660 940 C680 940 660 940 680 940" style="fill:transparent;stroke:black" /><text x="690" y="940" font-size="8" style="fill:black">unidades: metros</text><rect x="746" y="920" width="137" height="40" style="fill:green;stroke:black;stroke-width:1" /><text x="756" y="930" font-size="8" style="fill:white">156.28</text><rect x="680" y="970" width="200" height="40" style="fill:white;stroke:black;stroke-width:1" /><text x="690" y="980" font-size="10" style="fill:blue">coordenadas</text><path d="M660 940 C680 940 660 990 680 990" style="fill:transparent;stroke:black" /><text x="690" y="990" font-size="8" style="fill:black">longitud: 12.6855358</text><text x="690" y="1000" font-size="8" style="fill:black">latitud: 50.7906317</text><text x="690" y="1010" font-size="8" style="fill:black">altitud: 328.7178623</text><rect x="460" y="1070" width="200" height="40" style="fill:white;stroke:black;stroke-width:1" /><text x="470" y="1080" font-size="10" style="fill:blue">tramo</text><path d="M440 940 C460 940 440 1090 460 1090" style="fill:transparent;stroke:black" /><text x="470" y="1090" font-size="8" style="fill:black">numSector: 2</text><rect x="680" y="1070" width="200" height="40" style="fill:white;stroke:black;stroke-width:1" /><text x="690" y="1080" font-size="10" style="fill:blue">distancia</text><path d="M660 1090 C680 1090 660 1090 680 1090" style="fill:transparent;stroke:black" /><text x="690" y="1090" font-size="8" style="fill:black">unidades: metros</text><rect x="746" y="1070" width="137" height="40" style="fill:green;stroke:black;stroke-width:1" /><text x="756" y="1080" font-size="8" style="fill:white">525</text><rect x="680" y="1120" width="200" height="40" style="fill:white;stroke:black;stroke-width:1" /><text x="690" y="1130" font-size="10" style="fill:blue">coordenadas</text><path d="M660 1090 C680 1090 660 1140 680 1140" style="fill:transparent;stroke:black" /><text x="690" y="1140" font-size="8" style="fill:black">longitud: 12.6916429</text><text x="690" y="1150" font-size="8" style="fill:black">latitud: 50.7933162</text><text x="690" y="1160" font-size="8" style="fill:black">altitud: 335.4107978</text><rect x="460" y="1220" width="200" height="40" style="fill:white;stroke:black;stroke-width:1" /><text x="470" y="1230" font-size="10" style="fill:blue">tramo</text><path d="M440 940 C460 940 440 1240 460 1240" style="fill:transparent;stroke:black" /><text x="470" y="1240" font-size="8" style="fill:black">numSector: 3</text><rect x="680" y="1220" width="200" height="40" style="fill:white;stroke:black;stroke-width:1" /><text x="690" y="1230" font-size="10" style="fill:blue">distancia</text><path d="M660 1240 C680 1240 660 1240 680 1240" style="fill:transparent;stroke:black" /><text x="690" y="1240" font-size="8" style="fill:black">unidades: metros</text><rect x="746" y="1220" width="137" height="40" style="fill:green;stroke:black;stroke-width:1" /><text x="756" y="1230" font-size="8" style="fill:white">52.97</text><rect x="680" y="1270" width="200" height="40" style="fill:white;stroke:black;stroke-width:1" /><text x="690" y="1280" font-size="10" style="fill:blue">coordenadas</text><path d="M660 1240 C680 1240 660 1290 680 1290" style="fill:transparent;stroke:black" /><text x="690" y="1290" font-size="8" style="fill:black">longitud: 12.6923790</text><text x="690" y="1300" font-size="8" style="fill:black">latitud: 50.7932406</text><text x="690" y="1310" font-size="8" style="fill:black">altitud: 334.9625191</text><rect x="460" y="1370" width="200" height="40" style="fill:white;stroke:black;stroke-width:1" /><text x="470" y="1380" font-size="10" style="fill:blue">tramo</text><path d="M440 940 C460 940 440 1390 460 1390" style="fill:transparent;stroke:black" /><text x="470" y="1390" font-size="8" style="fill:black">numSector: 4</text><rect x="680" y="1370" width="200" height="40" style="fill:white;stroke:black;stroke-width:1" /><text x="690" y="1380" font-size="10" style="fill:blue">distancia</text><path d="M660 1390 C680 1390 660 1390 680 1390" style="fill:transparent;stroke:black" /><text x="690" y="1390" font-size="8" style="fill:black">unidades: metros</text><rect x="746" y="1370" width="137" height="40" style="fill:green;stroke:black;stroke-width:1" /><text x="756" y="1380" font-size="8" style="fill:white">48.3</text><rect x="680" y="1420" width="200" height="40" style="fill:white;stroke:black;stroke-width:1" /><text x="690" y="1430" font-size="10" style="fill:blue">coordenadas</text><path d="M660 1390 C680 1390 660 1440 680 1440" style="fill:transparent;stroke:black" /><text x="690" y="1440" font-size="8" style="fill:black">longitud: 12.6923941</text><text x="690" y="1450" font-size="8" style="fill:black">latitud: 50.7928037</text><text x="690" y="1460" font-size="8" style="fill:black">altitud: 331.5225025</text><rect x="460" y="1520" width="200" height="40" style="fill:white;stroke:black;stroke-width:1" /><text x="470" y="1530" font-size="10" style="fill:blue">tramo</text><path d="M440 940 C460 940 440 1540 460 1540" style="fill:transparent;stroke:black" /><text x="470" y="1540" font-size="8" style="fill:black">numSector: 5</text><rect x="680" y="1520" width="200" height="40" style="fill:white;stroke:black;stroke-width:1" /><text x="690" y="1530" font-size="10" style="fill:blue">distancia</text><path d="M660 1540 C680 1540 660 1540 680 1540" style="fill:transparent;stroke:black" /><text x="690" y="1540" font-size="8" style="fill:black">unidades: metros</text><rect x="746" y="1520" width="137" height="40" style="fill:green;stroke:black;stroke-width:1" /><text x="756" y="1530" font-size="8" style="fill:white">95.07</text><rect x="680" y="1570" width="200" height="40" style="fill:white;stroke:black;stroke-width:1" /><text x="690" y="1580" font-size="10" style="fill:blue">coordenadas</text><path d="M660 1540 C680 1540 660 1590 680 1590" style="fill:transparent;stroke:black" /><text x="690" y="1590" font-size="8" style="fill:black">longitud: 12.6917543</text><text x="690" y="1600" font-size="8" style="fill:black">latitud: 50.7920427</text><text x="690" y="1610" font-size="8" style="fill:black">altitud: 327.6270206</text><rect x="460" y="1670" width="200" height="40" style="fill:white;stroke:black;stroke-width:1" /><text x="470" y="1680" font-size="10" style="fill:blue">tramo</text><path d="M440 940 C460 940 440 1690 460 1690" style="fill:transparent;stroke:black" /><text x="470" y="1690" font-size="8" style="fill:black">numSector: 6</text><rect x="680" y="1670" width="200" height="40" style="fill:white;stroke:black;stroke-width:1" /><text x="690" y="1680" font-size="10" style="fill:blue">distancia</text><path d="M660 1690 C680 1690 660 1690 680 1690" style="fill:transparent;stroke:black" /><text x="690" y="1690" font-size="8" style="fill:black">unidades: metros</text><rect x="746" y="1670" width="137" height="40" style="fill:green;stroke:black;stroke-width:1" /><text x="756" y="1680" font-size="8" style="fill:white">92.84</text><rect x="680" y="1720" width="200" height="40" style="fill:white;stroke:black;stroke-width:1" /><text x="690" y="1730" font-size="10" style="fill:blue">coordenadas</text><path d="M660 1690 C680 1690 660 1740 680 1740" style="fill:transparent;stroke:black" /><text x="690" y="1740" font-size="8" style="fill:black">longitud: 12.6924428</text><text x="690" y="1750" font-size="8" style="fill:black">latitud: 50.7913406</text><text x="690" y="1760" font-size="8" style="fill:black">altitud: 322.0525644</text><rect x="460" y="1820" width="200" height="40" style="fill:white;stroke:black;stroke-width:1" /><text x="470" y="1830" font-size="10" style="fill:blue">tramo</text><path d="M440 940 C460 940 440 1840 460 1840" style="fill:transparent;stroke:black" /><text x="470" y="1840" font-size="8" style="fill:black">numSector: 7</text><rect x="680" y="1820" width="200" height="40" style="fill:white;stroke:black;stroke-width:1" /><text x="690" y="1830" font-size="10" style="fill:blue">distancia</text><path d="M660 1840 C680 1840 660 1840 680 1840" style="fill:transparent;stroke:black" /><text x="690" y="1840" font-size="8" style="fill:black">unidades: metros</text><rect x="746" y="1820" width="137" height="40" style="fill:green;stroke:black;stroke-width:1" /><text x="756" y="1830" font-size="8" style="fill:white">91.15</text><rect x="680" y="1870" width="200" height="40" style="fill:white;stroke:black;stroke-width:1" /><text x="690" y="1880" font-size="10" style="fill:blue">coordenadas</text><path d="M660 1840 C680 1840 660 1890 680 1890" style="fill:transparent;stroke:black" /><text x="690" y="1890" font-size="8" style="fill:black">longitud: 12.6933570</text><text x="690" y="1900" font-size="8" style="fill:black">latitud: 50.7907765</text><text x="690" y="1910" font-size="8" style="fill:black">altitud: 315.5097551</text><rect x="460" y="1970" width="200" height="40" style="fill:white;stroke:black;stroke-width:1" /><text x="470" y="1980" font-size="10" style="fill:blue">tramo</text><path d="M440 940 C460 940 440 1990 460 1990" style="fill:transparent;stroke:black" /><text x="470" y="1990" font-size="8" style="fill:black">numSector: 8</text><rect x="680" y="1970" width="200" height="40" style="fill:white;stroke:black;stroke-width:1" /><text x="690" y="1980" font-size="10" style="fill:blue">distancia</text><path d="M660 1990 C680 1990 660 1990 680 1990" style="fill:transparent;stroke:black" /><text x="690" y="1990" font-size="8" style="fill:black">unidades: metros</text><rect x="746" y="1970" width="137" height="40" style="fill:green;stroke:black;stroke-width:1" /><text x="756" y="1980" font-size="8" style="fill:white">52.31</text><rect x="680" y="2020" width="200" height="40" style="fill:white;stroke:black;stroke-width:1" /><text x="690" y="2030" font-size="10" style="fill:blue">coordenadas</text><path d="M660 1990 C680 1990 660 2040 680 2040" style="fill:transparent;stroke:black" /><text x="690" y="2040" font-size="8" style="fill:black">longitud: 12.6929252</text><text x="690" y="2050" font-size="8" style="fill:black">latitud: 50.7903990</text><text x="690" y="2060" font-size="8" style="fill:black">altitud: 315.0510379</text><rect x="460" y="2120" width="200" height="40" style="fill:white;stroke:black;stroke-width:1" /><text x="470" y="2130" font-size="10" style="fill:blue">tramo</text><path d="M440 940 C460 940 440 2140 460 2140" style="fill:transparent;stroke:black" /><text x="470" y="2140" font-size="8" style="fill:black">numSector: 9</text><rect x="680" y="2120" width="200" height="40" style="fill:white;stroke:black;stroke-width:1" /><text x="690" y="2130" font-size="10" style="fill:blue">distancia</text><path d="M660 2140 C680 2140 660 2140 680 2140" style="fill:transparent;stroke:black" /><text x="690" y="2140" font-size="8" style="fill:black">unidades: metros</text><rect x="746" y="2120" width="137" height="40" style="fill:green;stroke:black;stroke-width:1" /><text x="756" y="2130" font-size="8" style="fill:white">82.42</text><rect x="680" y="2170" width="200" height="40" style="fill:white;stroke:black;stroke-width:1" /><text x="690" y="2180" font-size="10" style="fill:blue">coordenadas</text><path d="M660 2140 C680 2140 660 2190 680 2190" style="fill:transparent;stroke:black" /><text x="690" y="2190" font-size="8" style="fill:black">longitud: 12.6920424</text><text x="690" y="2200" font-size="8" style="fill:black">latitud: 50.7908869</text><text x="690" y="2210" font-size="8" style="fill:black">altitud: 320.6373954</text><rect x="460" y="2270" width="200" height="40" style="fill:white;stroke:black;stroke-width:1" /><text x="470" y="2280" font-size="10" style="fill:blue">tramo</text><path d="M440 940 C460 940 440 2290 460 2290" style="fill:transparent;stroke:black" /><text x="470" y="2290" font-size="8" style="fill:black">numSector: 10</text><rect x="680" y="2270" width="200" height="40" style="fill:white;stroke:black;stroke-width:1" /><text x="690" y="2280" font-size="10" style="fill:blue">distancia</text><path d="M660 2290 C680 2290 660 2290 680 2290" style="fill:transparent;stroke:black" /><text x="690" y="2290" font-size="8" style="fill:black">unidades: metros</text><rect x="746" y="2270" width="137" height="40" style="fill:green;stroke:black;stroke-width:1" /><text x="756" y="2280" font-size="8" style="fill:white">130.88</text><rect x="680" y="2320" width="200" height="40" style="fill:white;stroke:black;stroke-width:1" /><text x="690" y="2330" font-size="10" style="fill:blue">coordenadas</text><path d="M660 2290 C680 2290 660 2340 680 2340" style="fill:transparent;stroke:black" /><text x="690" y="2340" font-size="8" style="fill:black">longitud: 12.6906087</text><text x="690" y="2350" font-size="8" style="fill:black">latitud: 50.7916465</text><text x="690" y="2360" font-size="8" style="fill:black">altitud: 330.3266122</text><rect x="460" y="2420" width="200" height="40" style="fill:white;stroke:black;stroke-width:1" /><text x="470" y="2430" font-size="10" style="fill:blue">tramo</text><path d="M440 940 C460 940 440 2440 460 2440" style="fill:transparent;stroke:black" /><text x="470" y="2440" font-size="8" style="fill:black">numSector: 11</text><rect x="680" y="2420" width="200" height="40" style="fill:white;stroke:black;stroke-width:1" /><text x="690" y="2430" font-size="10" style="fill:blue">distancia</text><path d="M660 2440 C680 2440 660 2440 680 2440" style="fill:transparent;stroke:black" /><text x="690" y="2440" font-size="8" style="fill:black">unidades: metros</text><rect x="746" y="2420" width="137" height="40" style="fill:green;stroke:black;stroke-width:1" /><text x="756" y="2430" font-size="8" style="fill:white">102.87</text><rect x="680" y="2470" width="200" height="40" style="fill:white;stroke:black;stroke-width:1" /><text x="690" y="2480" font-size="10" style="fill:blue">coordenadas</text><path d="M660 2440 C680 2440 660 2490 680 2490" style="fill:transparent;stroke:black" /><text x="690" y="2490" font-size="8" style="fill:black">longitud: 12.6895332</text><text x="690" y="2500" font-size="8" style="fill:black">latitud: 50.7910426</text><text x="690" y="2510" font-size="8" style="fill:black">altitud: 334.4622865</text><rect x="460" y="2570" width="200" height="40" style="fill:white;stroke:black;stroke-width:1" /><text x="470" y="2580" font-size="10" style="fill:blue">tramo</text><path d="M440 940 C460 940 440 2590 460 2590" style="fill:transparent;stroke:black" /><text x="470" y="2590" font-size="8" style="fill:black">numSector: 12</text><rect x="680" y="2570" width="200" height="40" style="fill:white;stroke:black;stroke-width:1" /><text x="690" y="2580" font-size="10" style="fill:blue">distancia</text><path d="M660 2590 C680 2590 660 2590 680 2590" style="fill:transparent;stroke:black" /><text x="690" y="2590" font-size="8" style="fill:black">unidades: metros</text><rect x="746" y="2570" width="137" height="40" style="fill:green;stroke:black;stroke-width:1" /><text x="756" y="2580" font-size="8" style="fill:white">181.74</text><rect x="680" y="2620" width="200" height="40" style="fill:white;stroke:black;stroke-width:1" /><text x="690" y="2630" font-size="10" style="fill:blue">coordenadas</text><path d="M660 2590 C680 2590 660 2640 680 2640" style="fill:transparent;stroke:black" /><text x="690" y="2640" font-size="8" style="fill:black">longitud: 12.6907168</text><text x="690" y="2650" font-size="8" style="fill:black">latitud: 50.7895982</text><text x="690" y="2660" font-size="8" style="fill:black">altitud: 323.5438809</text><rect x="460" y="2720" width="200" height="40" style="fill:white;stroke:black;stroke-width:1" /><text x="470" y="2730" font-size="10" style="fill:blue">tramo</text><path d="M440 940 C460 940 440 2740 460 2740" style="fill:transparent;stroke:black" /><text x="470" y="2740" font-size="8" style="fill:black">numSector: 13</text><rect x="680" y="2720" width="200" height="40" style="fill:white;stroke:black;stroke-width:1" /><text x="690" y="2730" font-size="10" style="fill:blue">distancia</text><path d="M660 2740 C680 2740 660 2740 680 2740" style="fill:transparent;stroke:black" /><text x="690" y="2740" font-size="8" style="fill:black">unidades: metros</text><rect x="746" y="2720" width="137" height="40" style="fill:green;stroke:black;stroke-width:1" /><text x="756" y="2730" font-size="8" style="fill:white">126.5</text><rect x="680" y="2770" width="200" height="40" style="fill:white;stroke:black;stroke-width:1" /><text x="690" y="2780" font-size="10" style="fill:blue">coordenadas</text><path d="M660 2740 C680 2740 660 2790 680 2790" style="fill:transparent;stroke:black" /><text x="690" y="2790" font-size="8" style="fill:black">longitud: 12.6925009</text><text x="690" y="2800" font-size="8" style="fill:black">latitud: 50.7895707</text><text x="690" y="2810" font-size="8" style="fill:black">altitud: 315.3881661</text><rect x="460" y="2870" width="200" height="40" style="fill:white;stroke:black;stroke-width:1" /><text x="470" y="2880" font-size="10" style="fill:blue">tramo</text><path d="M440 940 C460 940 440 2890 460 2890" style="fill:transparent;stroke:black" /><text x="470" y="2890" font-size="8" style="fill:black">numSector: 14</text><rect x="680" y="2870" width="200" height="40" style="fill:white;stroke:black;stroke-width:1" /><text x="690" y="2880" font-size="10" style="fill:blue">distancia</text><path d="M660 2890 C680 2890 660 2890 680 2890" style="fill:transparent;stroke:black" /><text x="690" y="2890" font-size="8" style="fill:black">unidades: metros</text><rect x="746" y="2870" width="137" height="40" style="fill:green;stroke:black;stroke-width:1" /><text x="756" y="2880" font-size="8" style="fill:white">273.36</text><rect x="680" y="2920" width="200" height="40" style="fill:white;stroke:black;stroke-width:1" /><text x="690" y="2930" font-size="10" style="fill:blue">coordenadas</text><path d="M660 2890 C680 2890 660 2940 680 2940" style="fill:transparent;stroke:black" /><text x="690" y="2940" font-size="8" style="fill:black">longitud: 12.6953457</text><text x="690" y="2950" font-size="8" style="fill:black">latitud: 50.7912401</text><text x="690" y="2960" font-size="8" style="fill:black">altitud: 313.3123687</text><rect x="460" y="3020" width="200" height="40" style="fill:white;stroke:black;stroke-width:1" /><text x="470" y="3030" font-size="10" style="fill:blue">tramo</text><path d="M440 940 C460 940 440 3040 460 3040" style="fill:transparent;stroke:black" /><text x="470" y="3040" font-size="8" style="fill:black">numSector: 15</text><rect x="680" y="3020" width="200" height="40" style="fill:white;stroke:black;stroke-width:1" /><text x="690" y="3030" font-size="10" style="fill:blue">distancia</text><path d="M660 3040 C680 3040 660 3040 680 3040" style="fill:transparent;stroke:black" /><text x="690" y="3040" font-size="8" style="fill:black">unidades: metros</text><rect x="746" y="3020" width="137" height="40" style="fill:green;stroke:black;stroke-width:1" /><text x="756" y="3030" font-size="8" style="fill:white">258.1</text><rect x="680" y="3070" width="200" height="40" style="fill:white;stroke:black;stroke-width:1" /><text x="690" y="3080" font-size="10" style="fill:blue">coordenadas</text><path d="M660 3040 C680 3040 660 3090 680 3090" style="fill:transparent;stroke:black" /><text x="690" y="3090" font-size="8" style="fill:black">longitud: 12.6941041</text><text x="690" y="3100" font-size="8" style="fill:black">latitud: 50.7934192</text><text x="690" y="3110" font-size="8" style="fill:black">altitud: 333.0561934</text><rect x="460" y="3170" width="200" height="40" style="fill:white;stroke:black;stroke-width:1" /><text x="470" y="3180" font-size="10" style="fill:blue">tramo</text><path d="M440 940 C460 940 440 3190 460 3190" style="fill:transparent;stroke:black" /><text x="470" y="3190" font-size="8" style="fill:black">numSector: 16</text><rect x="680" y="3170" width="200" height="40" style="fill:white;stroke:black;stroke-width:1" /><text x="690" y="3180" font-size="10" style="fill:blue">distancia</text><path d="M660 3190 C680 3190 660 3190 680 3190" style="fill:transparent;stroke:black" /><text x="690" y="3190" font-size="8" style="fill:black">unidades: metros</text><rect x="746" y="3170" width="137" height="40" style="fill:green;stroke:black;stroke-width:1" /><text x="756" y="3180" font-size="8" style="fill:white">132.37</text><rect x="680" y="3220" width="200" height="40" style="fill:white;stroke:black;stroke-width:1" /><text x="690" y="3230" font-size="10" style="fill:blue">coordenadas</text><path d="M660 3190 C680 3190 660 3240 680 3240" style="fill:transparent;stroke:black" /><text x="690" y="3240" font-size="8" style="fill:black">longitud: 12.6923394</text><text x="690" y="3250" font-size="8" style="fill:black">latitud: 50.7938309</text><text x="690" y="3260" font-size="8" style="fill:black">altitud: 337.1767461</text><rect x="460" y="3320" width="200" height="40" style="fill:white;stroke:black;stroke-width:1" /><text x="470" y="3330" font-size="10" style="fill:blue">tramo</text><path d="M440 940 C460 940 440 3340 460 3340" style="fill:transparent;stroke:black" /><text x="470" y="3340" font-size="8" style="fill:black">numSector: 17</text><rect x="680" y="3320" width="200" height="40" style="fill:white;stroke:black;stroke-width:1" /><text x="690" y="3330" font-size="10" style="fill:blue">distancia</text><path d="M660 3340 C680 3340 660 3340 680 3340" style="fill:transparent;stroke:black" /><text x="690" y="3340" font-size="8" style="fill:black">unidades: metros</text><rect x="746" y="3320" width="137" height="40" style="fill:green;stroke:black;stroke-width:1" /><text x="756" y="3330" font-size="8" style="fill:white">213.3</text><rect x="680" y="3370" width="200" height="40" style="fill:white;stroke:black;stroke-width:1" /><text x="690" y="3380" font-size="10" style="fill:blue">coordenadas</text><path d="M660 3340 C680 3340 660 3390 680 3390" style="fill:transparent;stroke:black" /><text x="690" y="3390" font-size="8" style="fill:black">longitud: 12.6897058</text><text x="690" y="3400" font-size="8" style="fill:black">latitud: 50.7928841</text><text x="690" y="3410" font-size="8" style="fill:black">altitud: 334.4975299</text><rect x="460" y="3470" width="200" height="40" style="fill:white;stroke:black;stroke-width:1" /><text x="470" y="3480" font-size="10" style="fill:blue">tramo</text><path d="M440 940 C460 940 440 3490 460 3490" style="fill:transparent;stroke:black" /><text x="470" y="3490" font-size="8" style="fill:black">numSector: 18</text><rect x="680" y="3470" width="200" height="40" style="fill:white;stroke:black;stroke-width:1" /><text x="690" y="3480" font-size="10" style="fill:blue">distancia</text><path d="M660 3490 C680 3490 660 3490 680 3490" style="fill:transparent;stroke:black" /><text x="690" y="3490" font-size="8" style="fill:black">unidades: metros</text><rect x="746" y="3470" width="137" height="40" style="fill:green;stroke:black;stroke-width:1" /><text x="756" y="3480" font-size="8" style="fill:white">471.82</text><rect x="680" y="3520" width="200" height="40" style="fill:white;stroke:black;stroke-width:1" /><text x="690" y="3530" font-size="10" style="fill:blue">coordenadas</text><path d="M660 3490 C680 3490 660 3540 680 3540" style="fill:transparent;stroke:black" /><text x="690" y="3540" font-size="8" style="fill:black">longitud: 12.6830465</text><text x="690" y="3550" font-size="8" style="fill:black">latitud: 50.7931012</text><text x="690" y="3560" font-size="8" style="fill:black">altitud: 303.6169815</text><rect x="460" y="3620" width="200" height="40" style="fill:white;stroke:black;stroke-width:1" /><text x="470" y="3630" font-size="10" style="fill:blue">tramo</text><path d="M440 940 C460 940 440 3640 460 3640" style="fill:transparent;stroke:black" /><text x="470" y="3640" font-size="8" style="fill:black">numSector: 19</text><rect x="680" y="3620" width="200" height="40" style="fill:white;stroke:black;stroke-width:1" /><text x="690" y="3630" font-size="10" style="fill:blue">distancia</text><path d="M660 3640 C680 3640 660 3640 680 3640" style="fill:transparent;stroke:black" /><text x="690" y="3640" font-size="8" style="fill:black">unidades: metros</text><rect x="746" y="3620" width="137" height="40" style="fill:green;stroke:black;stroke-width:1" /><text x="756" y="3630" font-size="8" style="fill:white">68.62</text><rect x="680" y="3670" width="200" height="40" style="fill:white;stroke:black;stroke-width:1" /><text x="690" y="3680" font-size="10" style="fill:blue">coordenadas</text><path d="M660 3640 C680 3640 660 3690 680 3690" style="fill:transparent;stroke:black" /><text x="690" y="3690" font-size="8" style="fill:black">longitud: 12.6821599</text><text x="690" y="3700" font-size="8" style="fill:black">latitud: 50.7928593</text><text x="690" y="3710" font-size="8" style="fill:black">altitud: 305.7736410</text><rect x="460" y="3770" width="200" height="40" style="fill:white;stroke:black;stroke-width:1" /><text x="470" y="3780" font-size="10" style="fill:blue">tramo</text><path d="M440 940 C460 940 440 3790 460 3790" style="fill:transparent;stroke:black" /><text x="470" y="3790" font-size="8" style="fill:black">numSector: 20</text><rect x="680" y="3770" width="200" height="40" style="fill:white;stroke:black;stroke-width:1" /><text x="690" y="3780" font-size="10" style="fill:blue">distancia</text><path d="M660 3790 C680 3790 660 3790 680 3790" style="fill:transparent;stroke:black" /><text x="690" y="3790" font-size="8" style="fill:black">unidades: metros</text><rect x="746" y="3770" width="137" height="40" style="fill:green;stroke:black;stroke-width:1" /><text x="756" y="3780" font-size="8" style="fill:white">61.73</text><rect x="680" y="3820" width="200" height="40" style="fill:white;stroke:black;stroke-width:1" /><text x="690" y="3830" font-size="10" style="fill:blue">coordenadas</text><path d="M660 3790 C680 3790 660 3840 680 3840" style="fill:transparent;stroke:black" /><text x="690" y="3840" font-size="8" style="fill:black">longitud: 12.6818025</text><text x="690" y="3850" font-size="8" style="fill:black">latitud: 50.7923556</text><text x="690" y="3860" font-size="8" style="fill:black">altitud: 306.4596706</text><rect x="460" y="3920" width="200" height="40" style="fill:white;stroke:black;stroke-width:1" /><text x="470" y="3930" font-size="10" style="fill:blue">tramo</text><path d="M440 940 C460 940 440 3940 460 3940" style="fill:transparent;stroke:black" /><text x="470" y="3940" font-size="8" style="fill:black">numSector: 21</text><rect x="680" y="3920" width="200" height="40" style="fill:white;stroke:black;stroke-width:1" /><text x="690" y="3930" font-size="10" style="fill:blue">distancia</text><path d="M660 3940 C680 3940 660 3940 680 3940" style="fill:transparent;stroke:black" /><text x="690" y="3940" font-size="8" style="fill:black">unidades: metros</text><rect x="746" y="3920" width="137" height="40" style="fill:green;stroke:black;stroke-width:1" /><text x="756" y="3930" font-size="8" style="fill:white">275.04</text><rect x="680" y="3970" width="200" height="40" style="fill:white;stroke:black;stroke-width:1" /><text x="690" y="3980" font-size="10" style="fill:blue">coordenadas</text><path d="M660 3940 C680 3940 660 3990 680 3990" style="fill:transparent;stroke:black" /><text x="690" y="3990" font-size="8" style="fill:black">longitud: 12.6826762</text><text x="690" y="4000" font-size="8" style="fill:black">latitud: 50.7899463</text><text x="690" y="4010" font-size="8" style="fill:black">altitud: 310.5825841</text><rect x="460" y="4070" width="200" height="40" style="fill:white;stroke:black;stroke-width:1" /><text x="470" y="4080" font-size="10" style="fill:blue">tramo</text><path d="M440 940 C460 940 440 4090 460 4090" style="fill:transparent;stroke:black" /><text x="470" y="4090" font-size="8" style="fill:black">numSector: 22</text><rect x="680" y="4070" width="200" height="40" style="fill:white;stroke:black;stroke-width:1" /><text x="690" y="4080" font-size="10" style="fill:blue">distancia</text><path d="M660 4090 C680 4090 660 4090 680 4090" style="fill:transparent;stroke:black" /><text x="690" y="4090" font-size="8" style="fill:black">unidades: metros</text><rect x="746" y="4070" width="137" height="40" style="fill:green;stroke:black;stroke-width:1" /><text x="756" y="4080" font-size="8" style="fill:white">37.11</text><rect x="680" y="4120" width="200" height="40" style="fill:white;stroke:black;stroke-width:1" /><text x="690" y="4130" font-size="10" style="fill:blue">coordenadas</text><path d="M660 4090 C680 4090 660 4140 680 4140" style="fill:transparent;stroke:black" /><text x="690" y="4140" font-size="8" style="fill:black">longitud: 12.6831147</text><text x="690" y="4150" font-size="8" style="fill:black">latitud: 50.7897584</text><text x="690" y="4160" font-size="8" style="fill:black">altitud: 313.5885687</text><rect x="460" y="4220" width="200" height="40" style="fill:white;stroke:black;stroke-width:1" /><text x="470" y="4230" font-size="10" style="fill:blue">tramo</text><path d="M440 940 C460 940 440 4240 460 4240" style="fill:transparent;stroke:black" /><text x="470" y="4240" font-size="8" style="fill:black">numSector: 23</text><rect x="680" y="4220" width="200" height="40" style="fill:white;stroke:black;stroke-width:1" /><text x="690" y="4230" font-size="10" style="fill:blue">distancia</text><path d="M660 4240 C680 4240 660 4240 680 4240" style="fill:transparent;stroke:black" /><text x="690" y="4240" font-size="8" style="fill:black">unidades: metros</text><rect x="746" y="4220" width="137" height="40" style="fill:green;stroke:black;stroke-width:1" /><text x="756" y="4230" font-size="8" style="fill:white">44.65</text><rect x="680" y="4270" width="200" height="40" style="fill:white;stroke:black;stroke-width:1" /><text x="690" y="4280" font-size="10" style="fill:blue">coordenadas</text><path d="M660 4240 C680 4240 660 4290 680 4290" style="fill:transparent;stroke:black" /><text x="690" y="4290" font-size="8" style="fill:black">longitud: 12.6837374</text><text x="690" y="4300" font-size="8" style="fill:black">latitud: 50.7898205</text><text x="690" y="4310" font-size="8" style="fill:black">altitud: 318.1087759</text><rect x="460" y="4370" width="200" height="40" style="fill:white;stroke:black;stroke-width:1" /><text x="470" y="4380" font-size="10" style="fill:blue">tramo</text><path d="M440 940 C460 940 440 4390 460 4390" style="fill:transparent;stroke:black" /><text x="470" y="4390" font-size="8" style="fill:black">numSector: 24</text><rect x="680" y="4370" width="200" height="40" style="fill:white;stroke:black;stroke-width:1" /><text x="690" y="4380" font-size="10" style="fill:blue">distancia</text><path d="M660 4390 C680 4390 660 4390 680 4390" style="fill:transparent;stroke:black" /><text x="690" y="4390" font-size="8" style="fill:black">unidades: metros</text><rect x="746" y="4370" width="137" height="40" style="fill:green;stroke:black;stroke-width:1" /><text x="756" y="4380" font-size="8" style="fill:white">156.28</text><rect x="680" y="4420" width="200" height="40" style="fill:white;stroke:black;stroke-width:1" /><text x="690" y="4430" font-size="10" style="fill:blue">coordenadas</text><path d="M660 4390 C680 4390 660 4440 680 4440" style="fill:transparent;stroke:black" /><text x="690" y="4440" font-size="8" style="fill:black">longitud: 12.6855358</text><text x="690" y="4450" font-size="8" style="fill:black">latitud: 50.7906317</text><text x="690" y="4460" font-size="8" style="fill:black">altitud: 328.7178623</text><rect x="240" y="4570" width="200" height="40" style="fill:white;stroke:black;stroke-width:1" /><text x="250" y="4580" font-size="10" style="fill:blue">victoria</text><path d="M220 40 C240 40 220 4590 240 4590" style="fill:transparent;stroke:black" /><text x="250" y="4590" font-size="8" style="fill:black">vencedor: Marc Márquez</text><text x="250" y="4600" font-size="8" style="fill:black">tiempo: 40:42.854</text><rect x="240" y="4620" width="200" height="40" style="fill:white;stroke:black;stroke-width:1" /><text x="250" y="4630" font-size="10" style="fill:blue">clasificados</text><path d="M220 40 C240 40 220 4640 240 4640" style="fill:transparent;stroke:black" /><rect x="460" y="4620" width="200" height="40" style="fill:white;stroke:black;stroke-width:1" /><text x="470" y="4630" font-size="10" style="fill:blue">clasificado</text><path d="M440 4640 C460 4640 440 4640 460 4640" style="fill:transparent;stroke:black" /><rect x="526" y="4620" width="137" height="40" style="fill:green;stroke:black;stroke-width:1" /><text x="536" y="4630" font-size="8" style="fill:white">Marc Márquez</text><rect x="460" y="4670" width="200" height="40" style="fill:white;stroke:black;stroke-width:1" /><text x="470" y="4680" font-size="10" style="fill:blue">clasificado</text><path d="M440 4640 C460 4640 440 4690 460 4690" style="fill:transparent;stroke:black" /><rect x="526" y="4670" width="137" height="40" style="fill:green;stroke:black;stroke-width:1" /><text x="536" y="4680" font-size="8" style="fill:white">Álex Márquez</text><rect x="460" y="4720" width="200" height="40" style="fill:white;stroke:black;stroke-width:1" /><text x="470" y="4730" font-size="10" style="fill:blue">clasificado</text><path d="M440 4640 C460 4640 440 4740 460 4740" style="fill:transparent;stroke:black" /><rect x="526" y="4720" width="137" height="40" style="fill:green;stroke:black;stroke-width:1" /><text x="536" y="4730" font-size="8" style="fill:white">Francesco Bagnaia</text></svg>