<?xml version="1.0" encoding="utf-8"?><svg width="auto" height="2720" style="overflow:visible " version="1.1" xmlns="http://www.w3.org/2000/svg"><rect x="20" y="20" width="200" height="40" style="fill:white;stroke:black;stroke-width:1" /><text x="30" y="30" font-size="10" style="fill:blue">xs:schema</text><text x="30" y="40" font-size="8" style="fill:black">xmlns: http://www.uniovi.es</text><text x="30" y="50" font-size="8" style="fill:black">elementFormDefault: qualified</text><text x="30" y="60" font-size="8" style="fill:black">targetNamespace: http://www.uniovi.es</text><text x="30" y="70" font-size="8" style="fill:black">xmlns:xs: http://www.w3.org/2001/XMLSchema</text><rect x="240" y="20" width="200" height="40" style="fill:white;stroke:black;stroke-width:1" /><text x="250" y="30" font-size="10" style="fill:blue">xs:element</text><path d="M220 40 C240 40 220 40 240 40" style="fill:transparent;stroke:black" /><text x="250" y="40" font-size="8" style="fill:black">name: circuito</text><rect x="460" y="20" width="200" height="40" style="fill:white;stroke:black;stroke-width:1" /><text x="470" y="30" font-size="10" style="fill:blue">xs:complexType</text><path d="M440 40 C460 40 440 40 460 40" style="fill:transparent;stroke:black" /><rect x="680" y="20" width="200" height="40" style="fill:white;stroke:black;stroke-width:1" /><text x="690" y="30" font-size="10" style="fill:blue">xs:sequence</text><path d="M660 40 C680 40 660 40 680 40" style="fill:transparent;stroke:black" /><rect x="900" y="20" width="200" height="40" style="fill:white;stroke:black;stroke-width:1" /><text x="910" y="30" font-size="10" style="fill:blue">xs:element</text><path d="M880 40 C900 40 880 40 900 40" style="fill:transparent;stroke:black" /><text x="910" y="40" font-size="8" style="fill:black">ref: datos</text><rect x="900" y="70" width="200" height="40" style="fill:white;stroke:black;stroke-width:1" /><text x="910" y="80" font-size="10" style="fill:blue">xs:element</text><path d="M880 40 C900 40 880 90 900 90" style="fill:transparent;stroke:black" /><text x="910" y="90" font-size="8" style="fill:black">minOccurs: 3</text><text x="910" y="100" font-size="8" style="fill:black">maxOccurs: unbounded</text><text x="910" y="110" font-size="8" style="fill:black">ref: ref</text><rect x="900" y="120" width="200" height="40" style="fill:white;stroke:black;stroke-width:1" /><text x="910" y="130" font-size="10" style="fill:blue">xs:element</text><path d="M880 40 C900 40 880 140 900 140" style="fill:transparent;stroke:black" /><text x="910" y="140" font-size="8" style="fill:black">ref: galería</text><rect x="900" y="170" width="200" height="40" style="fill:white;stroke:black;stroke-width:1" /><text x="910" y="180" font-size="10" style="fill:blue">xs:element</text><path d="M880 40 C900 40 880 190 900 190" style="fill:transparent;stroke:black" /><text x="910" y="190" font-size="8" style="fill:black">ref: coordenadas</text><rect x="900" y="220" width="200" height="40" style="fill:white;stroke:black;stroke-width:1" /><text x="910" y="230" font-size="10" style="fill:blue">xs:element</text><path d="M880 40 C900 40 880 240 900 240" style="fill:transparent;stroke:black" /><text x="910" y="240" font-size="8" style="fill:black">minOccurs: 1</text><text x="910" y="250" font-size="8" style="fill:black">maxOccurs: unbounded</text><text x="910" y="260" font-size="8" style="fill:black">ref: tramo</text><rect x="240" y="420" width="200" height="40" style="fill:white;stroke:black;stroke-width:1" /><text x="250" y="430" font-size="10" style="fill:blue">xs:element</text><path d="M220 40 C240 40 220 440 240 440" style="fill:transparent;stroke:black" /><text x="250" y="440" font-size="8" style="fill:black">name: datos</text><rect x="460" y="420" width="200" height="40" style="fill:white;stroke:black;stroke-width:1" /><text x="470" y="430" font-size="10" style="fill:blue">xs:complexType</text><path d="M440 440 C460 440 440 440 460 440" style="fill:transparent;stroke:black" /><rect x="680" y="420" width="200" height="40" style="fill:white;stroke:black;stroke-width:1" /><text x="690" y="430" font-size="10" style="fill:blue">xs:simpleContent</text><path d="M660 440 C680 440 660 440 680 440" style="fill:transparent;stroke:black" /><rect x="900" y="420" width="200" height="40" style="fill:white;stroke:black;stroke-width:1" /><text x="910" y="430" font-size="10" style="fill:blue">xs:extension</text><path d="M880 440 C900 440 880 440 900 440" style="fill:transparent;stroke:black" /><text x="910" y="440" font-size="8" style="fill:black">base: xs:string</text><rect x="1120" y="420" width="200" height="40" style="fill:white;stroke:black;stroke-width:1" /><text x="1130" y="430" font-size="10" style="fill:blue">xs:attribute</text><path d="M1100 440 C1120 440 1100 440 1120 440" style="fill:transparent;stroke:black" /><text x="1130" y="440" font-size="8" style="fill:black">name: nombre</text><text x="1130" y="450" font-size="8" style="fill:black">type: xs:string</text><text x="1130" y="460" font-size="8" style="fill:black">use: required</text><rect x="1120" y="470" width="200" height="40" style="fill:white;stroke:black;stroke-width:1" /><text x="1130" y="480" font-size="10" style="fill:blue">xs:attribute</text><path d="M1100 440 C1120 440 1100 490 1120 490" style="fill:transparent;stroke:black" /><text x="1130" y="490" font-size="8" style="fill:black">name: longitudCircuito</text><text x="1130" y="500" font-size="8" style="fill:black">type: xs:int</text><text x="1130" y="510" font-size="8" style="fill:black">use: required</text><rect x="1120" y="520" width="200" height="40" style="fill:white;stroke:black;stroke-width:1" /><text x="1130" y="530" font-size="10" style="fill:blue">xs:attribute</text><path d="M1100 440 C1120 440 1100 540 1120 540" style="fill:transparent;stroke:black" /><text x="1130" y="540" font-size="8" style="fill:black">name: anchuraMedia</text><text x="1130" y="550" font-size="8" style="fill:black">type: xs:int</text><text x="1130" y="560" font-size="8" style="fill:black">use: required</text><rect x="1120" y="570" width="200" height="40" style="fill:white;stroke:black;stroke-width:1" /><text x="1130" y="580" font-size="10" style="fill:blue">xs:attribute</text><path d="M1100 440 C1120 440 1100 590 1120 590" style="fill:transparent;stroke:black" /><text x="1130" y="590" font-size="8" style="fill:black">name: fechaCarrera24</text><text x="1130" y="600" font-size="8" style="fill:black">type: xs:date</text><text x="1130" y="610" font-size="8" style="fill:black">use: required</text><rect x="1120" y="620" width="200" height="40" style="fill:white;stroke:black;stroke-width:1" /><text x="1130" y="630" font-size="10" style="fill:blue">xs:attribute</text><path d="M1100 440 C1120 440 1100 640 1120 640" style="fill:transparent;stroke:black" /><text x="1130" y="640" font-size="8" style="fill:black">name: horaEspInicio</text><text x="1130" y="650" font-size="8" style="fill:black">type: xs:time</text><text x="1130" y="660" font-size="8" style="fill:black">use: required</text><rect x="1120" y="670" width="200" height="40" style="fill:white;stroke:black;stroke-width:1" /><text x="1130" y="680" font-size="10" style="fill:blue">xs:attribute</text><path d="M1100 440 C1120 440 1100 690 1120 690" style="fill:transparent;stroke:black" /><text x="1130" y="690" font-size="8" style="fill:black">name: numVueltas</text><text x="1130" y="700" font-size="8" style="fill:black">type: xs:int</text><text x="1130" y="710" font-size="8" style="fill:black">use: required</text><rect x="1120" y="720" width="200" height="40" style="fill:white;stroke:black;stroke-width:1" /><text x="1130" y="730" font-size="10" style="fill:blue">xs:attribute</text><path d="M1100 440 C1120 440 1100 740 1120 740" style="fill:transparent;stroke:black" /><text x="1130" y="740" font-size="8" style="fill:black">name: localidad</text><text x="1130" y="750" font-size="8" style="fill:black">type: xs:string</text><text x="1130" y="760" font-size="8" style="fill:black">use: required</text><rect x="1120" y="770" width="200" height="40" style="fill:white;stroke:black;stroke-width:1" /><text x="1130" y="780" font-size="10" style="fill:blue">xs:attribute</text><path d="M1100 440 C1120 440 1100 790 1120 790" style="fill:transparent;stroke:black" /><text x="1130" y="790" font-size="8" style="fill:black">name: país</text><text x="1130" y="800" font-size="8" style="fill:black">type: xs:string</text><text x="1130" y="810" font-size="8" style="fill:black">use: required</text><rect x="240" y="1020" width="200" height="40" style="fill:white;stroke:black;stroke-width:1" /><text x="250" y="1030" font-size="10" style="fill:blue">xs:element</text><path d="M220 40 C240 40 220 1040 240 1040" style="fill:transparent;stroke:black" /><text x="250" y="1040" font-size="8" style="fill:black">name: ref</text><text x="250" y="1050" font-size="8" style="fill:black">type: xs:string</text><rect x="240" y="1070" width="200" height="40" style="fill:white;stroke:black;stroke-width:1" /><text x="250" y="1080" font-size="10" style="fill:blue">xs:element</text><path d="M220 40 C240 40 220 1090 240 1090" style="fill:transparent;stroke:black" /><text x="250" y="1090" font-size="8" style="fill:black">name: galería</text><rect x="460" y="1070" width="200" height="40" style="fill:white;stroke:black;stroke-width:1" /><text x="470" y="1080" font-size="10" style="fill:blue">xs:complexType</text><path d="M440 1090 C460 1090 440 1090 460 1090" style="fill:transparent;stroke:black" /><rect x="680" y="1070" width="200" height="40" style="fill:white;stroke:black;stroke-width:1" /><text x="690" y="1080" font-size="10" style="fill:blue">xs:sequence</text><path d="M660 1090 C680 1090 660 1090 680 1090" style="fill:transparent;stroke:black" /><rect x="900" y="1070" width="200" height="40" style="fill:white;stroke:black;stroke-width:1" /><text x="910" y="1080" font-size="10" style="fill:blue">xs:element</text><path d="M880 1090 C900 1090 880 1090 900 1090" style="fill:transparent;stroke:black" /><text x="910" y="1090" font-size="8" style="fill:black">minOccurs: 1</text><text x="910" y="1100" font-size="8" style="fill:black">maxOccurs: 5</text><text x="910" y="1110" font-size="8" style="fill:black">ref: foto</text><rect x="900" y="1120" width="200" height="40" style="fill:white;stroke:black;stroke-width:1" /><text x="910" y="1130" font-size="10" style="fill:blue">xs:element</text><path d="M880 1090 C900 1090 880 1140 900 1140" style="fill:transparent;stroke:black" /><text x="910" y="1140" font-size="8" style="fill:black">minOccurs: 0</text><text x="910" y="1150" font-size="8" style="fill:black">maxOccurs: 3</text><text x="910" y="1160" font-size="8" style="fill:black">ref: vídeo</text><rect x="240" y="1320" width="200" height="40" style="fill:white;stroke:black;stroke-width:1" /><text x="250" y="1330" font-size="10" style="fill:blue">xs:element</text><path d="M220 40 C240 40 220 1340 240 1340" style="fill:transparent;stroke:black" /><text x="250" y="1340" font-size="8" style="fill:black">name: foto</text><text x="250" y="1350" font-size="8" style="fill:black">type: xs:string</text><rect x="240" y="1370" width="200" height="40" style="fill:white;stroke:black;stroke-width:1" /><text x="250" y="1380" font-size="10" style="fill:blue">xs:element</text><path d="M220 40 C240 40 220 1390 240 1390" style="fill:transparent;stroke:black" /><text x="250" y="1390" font-size="8" style="fill:black">name: vídeo</text><text x="250" y="1400" font-size="8" style="fill:black">type: xs:string</text><rect x="240" y="1420" width="200" height="40" style="fill:white;stroke:black;stroke-width:1" /><text x="250" y="1430" font-size="10" style="fill:blue">xs:element</text><path d="M220 40 C240 40 220 1440 240 1440" style="fill:transparent;stroke:black" /><text x="250" y="1440" font-size="8" style="fill:black">name: coordenadas</text><rect x="460" y="1420" width="200" height="40" style="fill:white;stroke:black;stroke-width:1" /><text x="470" y="1430" font-size="10" style="fill:blue">xs:complexType</text><path d="M440 1440 C460 1440 440 1440 460 1440" style="fill:transparent;stroke:black" /><rect x="680" y="1420" width="200" height="40" style="fill:white;stroke:black;stroke-width:1" /><text x="690" y="1430" font-size="10" style="fill:blue">xs:simpleContent</text><path d="M660 1440 C680 1440 660 1440 680 1440" style="fill:transparent;stroke:black" /><rect x="900" y="1420" width="200" height="40" style="fill:white;stroke:black;stroke-width:1" /><text x="910" y="1430" font-size="10" style="fill:blue">xs:extension</text><path d="M880 1440 C900 1440 880 1440 900 1440" style="fill:transparent;stroke:black" /><text x="910" y="1440" font-size="8" style="fill:black">base: xs:string</text><rect x="1120" y="1420" width="200" height="40" style="fill:white;stroke:black;stroke-width:1" /><text x="1130" y="1430" font-size="10" style="fill:blue">xs:attribute</text><path d="M1100 1440 C1120 1440 1100 1440 1120 1440" style="fill:transparent;stroke:black" /><text x="1130" y="1440" font-size="8" style="fill:black">name: longitud</text><text x="1130" y="1450" font-size="8" style="fill:black">use: required</text><rect x="1340" y="1420" width="200" height="40" style="fill:white;stroke:black;stroke-width:1" /><text x="1350" y="1430" font-size="10" style="fill:blue">xs:simpleType</text><path d="M1320 1440 C1340 1440 1320 1440 1340 1440" style="fill:transparent;stroke:black" /><rect x="1560" y="1420" width="200" height="40" style="fill:white;stroke:black;stroke-width:1" /><text x="1570" y="1430" font-size="10" style="fill:blue">xs:restriction</text><path d="M1540 1440 C1560 1440 1540 1440 1560 1440" style="fill:transparent;stroke:black" /><text x="1570" y="1440" font-size="8" style="fill:black">base: xs:double</text><rect x="1780" y="1420" width="200" height="40" style="fill:white;stroke:black;stroke-width:1" /><text x="1790" y="1430" font-size="10" style="fill:blue">xs:minInclusive</text><path d="M1760 1440 C1780 1440 1760 1440 1780 1440" style="fill:transparent;stroke:black" /><text x="1790" y="1440" font-size="8" style="fill:black">value: -180</text><rect x="1780" y="1470" width="200" height="40" style="fill:white;stroke:black;stroke-width:1" /><text x="1790" y="1480" font-size="10" style="fill:blue">xs:maxInclusive</text><path d="M1760 1440 C1780 1440 1760 1490 1780 1490" style="fill:transparent;stroke:black" /><text x="1790" y="1490" font-size="8" style="fill:black">value: 180</text><rect x="1120" y="1670" width="200" height="40" style="fill:white;stroke:black;stroke-width:1" /><text x="1130" y="1680" font-size="10" style="fill:blue">xs:attribute</text><path d="M1100 1440 C1120 1440 1100 1690 1120 1690" style="fill:transparent;stroke:black" /><text x="1130" y="1690" font-size="8" style="fill:black">name: latitud</text><text x="1130" y="1700" font-size="8" style="fill:black">use: required</text><rect x="1340" y="1670" width="200" height="40" style="fill:white;stroke:black;stroke-width:1" /><text x="1350" y="1680" font-size="10" style="fill:blue">xs:simpleType</text><path d="M1320 1690 C1340 1690 1320 1690 1340 1690" style="fill:transparent;stroke:black" /><rect x="1560" y="1670" width="200" height="40" style="fill:white;stroke:black;stroke-width:1" /><text x="1570" y="1680" font-size="10" style="fill:blue">xs:restriction</text><path d="M1540 1690 C1560 1690 1540 1690 1560 1690" style="fill:transparent;stroke:black" /><text x="1570" y="1690" font-size="8" style="fill:black">base: xs:double</text><rect x="1780" y="1670" width="200" height="40" style="fill:white;stroke:black;stroke-width:1" /><text x="1790" y="1680" font-size="10" style="fill:blue">xs:minInclusive</text><path d="M1760 1690 C1780 1690 1760 1690 1780 1690" style="fill:transparent;stroke:black" /><text x="1790" y="1690" font-size="8" style="fill:black">value: -90</text><rect x="1780" y="1720" width="200" height="40" style="fill:white;stroke:black;stroke-width:1" /><text x="1790" y="1730" font-size="10" style="fill:blue">xs:maxInclusive</text><path d="M1760 1690 C1780 1690 1760 1740 1780 1740" style="fill:transparent;stroke:black" /><text x="1790" y="1740" font-size="8" style="fill:black">value: 90</text><rect x="1120" y="1920" width="200" height="40" style="fill:white;stroke:black;stroke-width:1" /><text x="1130" y="1930" font-size="10" style="fill:blue">xs:attribute</text><path d="M1100 1440 C1120 1440 1100 1940 1120 1940" style="fill:transparent;stroke:black" /><text x="1130" y="1940" font-size="8" style="fill:black">name: altitud</text><text x="1130" y="1950" font-size="8" style="fill:black">use: required</text><rect x="1340" y="1920" width="200" height="40" style="fill:white;stroke:black;stroke-width:1" /><text x="1350" y="1930" font-size="10" style="fill:blue">xs:simpleType</text><path d="M1320 1940 C1340 1940 1320 1940 1340 1940" style="fill:transparent;stroke:black" /><rect x="1560" y="1920" width="200" height="40" style="fill:white;stroke:black;stroke-width:1" /><text x="1570" y="1930" font-size="10" style="fill:blue">xs:restriction</text><path d="M1540 1940 C1560 1940 1540 1940 1560 1940" style="fill:transparent;stroke:black" /><text x="1570" y="1940" font-size="8" style="fill:black">base: xs:double</text><rect x="1780" y="1920" width="200" height="40" style="fill:white;stroke:black;stroke-width:1" /><text x="1790" y="1930" font-size="10" style="fill:blue">xs:minInclusive</text><path d="M1760 1940 C1780 1940 1760 1940 1780 1940" style="fill:transparent;stroke:black" /><text x="1790" y="1940" font-size="8" style="fill:black">value: 0</text><rect x="1780" y="1970" width="200" height="40" style="fill:white;stroke:black;stroke-width:1" /><text x="1790" y="1980" font-size="10" style="fill:blue">xs:maxInclusive</text><path d="M1760 1940 C1780 1940 1760 1990 1780 1990" style="fill:transparent;stroke:black" /><text x="1790" y="1990" font-size="8" style="fill:black">value: 8000</text><rect x="240" y="2370" width="200" height="40" style="fill:white;stroke:black;stroke-width:1" /><text x="250" y="2380" font-size="10" style="fill:blue">xs:element</text><path d="M220 40 C240 40 220 2390 240 2390" style="fill:transparent;stroke:black" /><text x="250" y="2390" font-size="8" style="fill:black">name: tramo</text><rect x="460" y="2370" width="200" height="40" style="fill:white;stroke:black;stroke-width:1" /><text x="470" y="2380" font-size="10" style="fill:blue">xs:complexType</text><path d="M440 2390 C460 2390 440 2390 460 2390" style="fill:transparent;stroke:black" /><rect x="680" y="2370" width="200" height="40" style="fill:white;stroke:black;stroke-width:1" /><text x="690" y="2380" font-size="10" style="fill:blue">xs:sequence</text><path d="M660 2390 C680 2390 660 2390 680 2390" style="fill:transparent;stroke:black" /><rect x="900" y="2370" width="200" height="40" style="fill:white;stroke:black;stroke-width:1" /><text x="910" y="2380" font-size="10" style="fill:blue">xs:element</text><path d="M880 2390 C900 2390 880 2390 900 2390" style="fill:transparent;stroke:black" /><text x="910" y="2390" font-size="8" style="fill:black">minOccurs: 1</text><text x="910" y="2400" font-size="8" style="fill:black">maxOccurs: unbounded</text><text x="910" y="2410" font-size="8" style="fill:black">ref: coordenadas</text><rect x="680" y="2470" width="200" height="40" style="fill:white;stroke:black;stroke-width:1" /><text x="690" y="2480" font-size="10" style="fill:blue">xs:attribute</text><path d="M660 2390 C680 2390 660 2490 680 2490" style="fill:transparent;stroke:black" /><text x="690" y="2490" font-size="8" style="fill:black">name: distancia</text><text x="690" y="2500" font-size="8" style="fill:black">type: xs:int</text><text x="690" y="2510" font-size="8" style="fill:black">use: required</text><rect x="680" y="2520" width="200" height="40" style="fill:white;stroke:black;stroke-width:1" /><text x="690" y="2530" font-size="10" style="fill:blue">xs:attribute</text><path d="M660 2390 C680 2390 660 2540 680 2540" style="fill:transparent;stroke:black" /><text x="690" y="2540" font-size="8" style="fill:black">name: numSector</text><text x="690" y="2550" font-size="8" style="fill:black">type: xs:int</text><text x="690" y="2560" font-size="8" style="fill:black">use: required</text></svg>