<?xml version="1.0" encoding="utf-8"?><svg width="auto" height="4470" style="overflow:visible " version="1.1" xmlns="http://www.w3.org/2000/svg"><rect x="20" y="20" width="200" height="40" style="fill:white;stroke:black;stroke-width:1" /><text x="30" y="30" font-size="10" style="fill:blue">xs:schema</text><text x="30" y="40" font-size="8" style="fill:black">xmlns: http://www.uniovi.es</text><text x="30" y="50" font-size="8" style="fill:black">elementFormDefault: qualified</text><text x="30" y="60" font-size="8" style="fill:black">targetNamespace: http://www.uniovi.es</text><text x="30" y="70" font-size="8" style="fill:black">xmlns:xs: http://www.w3.org/2001/XMLSchema</text><rect x="240" y="20" width="200" height="40" style="fill:white;stroke:black;stroke-width:1" /><text x="250" y="30" font-size="10" style="fill:blue">xs:element</text><path d="M220 40 C240 40 220 40 240 40" style="fill:transparent;stroke:black" /><text x="250" y="40" font-size="8" style="fill:black">name: circuito</text><rect x="460" y="20" width="200" height="40" style="fill:white;stroke:black;stroke-width:1" /><text x="470" y="30" font-size="10" style="fill:blue">xs:complexType</text><path d="M440 40 C460 40 440 40 460 40" style="fill:transparent;stroke:black" /><rect x="680" y="20" width="200" height="40" style="fill:white;stroke:black;stroke-width:1" /><text x="690" y="30" font-size="10" style="fill:blue">xs:sequence</text><path d="M660 40 C680 40 660 40 680 40" style="fill:transparent;stroke:black" /><rect x="900" y="20" width="200" height="40" style="fill:white;stroke:black;stroke-width:1" /><text x="910" y="30" font-size="10" style="fill:blue">xs:element</text><path d="M880 40 C900 40 880 40 900 40" style="fill:transparent;stroke:black" /><text x="910" y="40" font-size="8" style="fill:black">ref: nombre</text><rect x="900" y="70" width="200" height="40" style="fill:white;stroke:black;stroke-width:1" /><text x="910" y="80" font-size="10" style="fill:blue">xs:element</text><path d="M880 40 C900 40 880 90 900 90" style="fill:transparent;stroke:black" /><text x="910" y="90" font-size="8" style="fill:black">ref: fechaCarrera25</text><rect x="900" y="120" width="200" height="40" style="fill:white;stroke:black;stroke-width:1" /><text x="910" y="130" font-size="10" style="fill:blue">xs:element</text><path d="M880 40 C900 40 880 140 900 140" style="fill:transparent;stroke:black" /><text x="910" y="140" font-size="8" style="fill:black">ref: horaEspInicio</text><rect x="900" y="170" width="200" height="40" style="fill:white;stroke:black;stroke-width:1" /><text x="910" y="180" font-size="10" style="fill:blue">xs:element</text><path d="M880 40 C900 40 880 190 900 190" style="fill:transparent;stroke:black" /><text x="910" y="190" font-size="8" style="fill:black">ref: numVueltas</text><rect x="900" y="220" width="200" height="40" style="fill:white;stroke:black;stroke-width:1" /><text x="910" y="230" font-size="10" style="fill:blue">xs:element</text><path d="M880 40 C900 40 880 240 900 240" style="fill:transparent;stroke:black" /><text x="910" y="240" font-size="8" style="fill:black">ref: localidad</text><rect x="900" y="270" width="200" height="40" style="fill:white;stroke:black;stroke-width:1" /><text x="910" y="280" font-size="10" style="fill:blue">xs:element</text><path d="M880 40 C900 40 880 290 900 290" style="fill:transparent;stroke:black" /><text x="910" y="290" font-size="8" style="fill:black">ref: pais</text><rect x="900" y="320" width="200" height="40" style="fill:white;stroke:black;stroke-width:1" /><text x="910" y="330" font-size="10" style="fill:blue">xs:element</text><path d="M880 40 C900 40 880 340 900 340" style="fill:transparent;stroke:black" /><text x="910" y="340" font-size="8" style="fill:black">ref: patrocinador</text><rect x="900" y="370" width="200" height="40" style="fill:white;stroke:black;stroke-width:1" /><text x="910" y="380" font-size="10" style="fill:blue">xs:element</text><path d="M880 40 C900 40 880 390 900 390" style="fill:transparent;stroke:black" /><text x="910" y="390" font-size="8" style="fill:black">ref: longitudCircuito</text><rect x="900" y="420" width="200" height="40" style="fill:white;stroke:black;stroke-width:1" /><text x="910" y="430" font-size="10" style="fill:blue">xs:element</text><path d="M880 40 C900 40 880 440 900 440" style="fill:transparent;stroke:black" /><text x="910" y="440" font-size="8" style="fill:black">ref: anchuraMedia</text><rect x="900" y="470" width="200" height="40" style="fill:white;stroke:black;stroke-width:1" /><text x="910" y="480" font-size="10" style="fill:blue">xs:element</text><path d="M880 40 C900 40 880 490 900 490" style="fill:transparent;stroke:black" /><text x="910" y="490" font-size="8" style="fill:black">ref: referencias</text><rect x="900" y="520" width="200" height="40" style="fill:white;stroke:black;stroke-width:1" /><text x="910" y="530" font-size="10" style="fill:blue">xs:element</text><path d="M880 40 C900 40 880 540 900 540" style="fill:transparent;stroke:black" /><text x="910" y="540" font-size="8" style="fill:black">minOccurs: 1</text><text x="910" y="550" font-size="8" style="fill:black">maxOccurs: 5</text><text x="910" y="560" font-size="8" style="fill:black">ref: foto</text><rect x="900" y="570" width="200" height="40" style="fill:white;stroke:black;stroke-width:1" /><text x="910" y="580" font-size="10" style="fill:blue">xs:element</text><path d="M880 40 C900 40 880 590 900 590" style="fill:transparent;stroke:black" /><text x="910" y="590" font-size="8" style="fill:black">minOccurs: 1</text><text x="910" y="600" font-size="8" style="fill:black">maxOccurs: 3</text><text x="910" y="610" font-size="8" style="fill:black">ref: video</text><rect x="900" y="620" width="200" height="40" style="fill:white;stroke:black;stroke-width:1" /><text x="910" y="630" font-size="10" style="fill:blue">xs:element</text><path d="M880 40 C900 40 880 640 900 640" style="fill:transparent;stroke:black" /><text x="910" y="640" font-size="8" style="fill:black">ref: coordenadas</text><rect x="900" y="670" width="200" height="40" style="fill:white;stroke:black;stroke-width:1" /><text x="910" y="680" font-size="10" style="fill:blue">xs:element</text><path d="M880 40 C900 40 880 690 900 690" style="fill:transparent;stroke:black" /><text x="910" y="690" font-size="8" style="fill:black">ref: tramos</text><rect x="900" y="720" width="200" height="40" style="fill:white;stroke:black;stroke-width:1" /><text x="910" y="730" font-size="10" style="fill:blue">xs:element</text><path d="M880 40 C900 40 880 740 900 740" style="fill:transparent;stroke:black" /><text x="910" y="740" font-size="8" style="fill:black">ref: victoria</text><rect x="900" y="770" width="200" height="40" style="fill:white;stroke:black;stroke-width:1" /><text x="910" y="780" font-size="10" style="fill:blue">xs:element</text><path d="M880 40 C900 40 880 790 900 790" style="fill:transparent;stroke:black" /><text x="910" y="790" font-size="8" style="fill:black">ref: clasificados</text><rect x="240" y="970" width="200" height="40" style="fill:white;stroke:black;stroke-width:1" /><text x="250" y="980" font-size="10" style="fill:blue">xs:element</text><path d="M220 40 C240 40 220 990 240 990" style="fill:transparent;stroke:black" /><text x="250" y="990" font-size="8" style="fill:black">name: nombre</text><text x="250" y="1000" font-size="8" style="fill:black">type: xs:string</text><rect x="240" y="1020" width="200" height="40" style="fill:white;stroke:black;stroke-width:1" /><text x="250" y="1030" font-size="10" style="fill:blue">xs:element</text><path d="M220 40 C240 40 220 1040 240 1040" style="fill:transparent;stroke:black" /><text x="250" y="1040" font-size="8" style="fill:black">name: fechaCarrera25</text><text x="250" y="1050" font-size="8" style="fill:black">type: xs:date</text><rect x="240" y="1070" width="200" height="40" style="fill:white;stroke:black;stroke-width:1" /><text x="250" y="1080" font-size="10" style="fill:blue">xs:element</text><path d="M220 40 C240 40 220 1090 240 1090" style="fill:transparent;stroke:black" /><text x="250" y="1090" font-size="8" style="fill:black">name: horaEspInicio</text><text x="250" y="1100" font-size="8" style="fill:black">type: xs:time</text><rect x="240" y="1120" width="200" height="40" style="fill:white;stroke:black;stroke-width:1" /><text x="250" y="1130" font-size="10" style="fill:blue">xs:element</text><path d="M220 40 C240 40 220 1140 240 1140" style="fill:transparent;stroke:black" /><text x="250" y="1140" font-size="8" style="fill:black">name: numVueltas</text><text x="250" y="1150" font-size="8" style="fill:black">type: xs:int</text><rect x="240" y="1170" width="200" height="40" style="fill:white;stroke:black;stroke-width:1" /><text x="250" y="1180" font-size="10" style="fill:blue">xs:element</text><path d="M220 40 C240 40 220 1190 240 1190" style="fill:transparent;stroke:black" /><text x="250" y="1190" font-size="8" style="fill:black">name: localidad</text><text x="250" y="1200" font-size="8" style="fill:black">type: xs:string</text><rect x="240" y="1220" width="200" height="40" style="fill:white;stroke:black;stroke-width:1" /><text x="250" y="1230" font-size="10" style="fill:blue">xs:element</text><path d="M220 40 C240 40 220 1240 240 1240" style="fill:transparent;stroke:black" /><text x="250" y="1240" font-size="8" style="fill:black">name: pais</text><text x="250" y="1250" font-size="8" style="fill:black">type: xs:string</text><rect x="240" y="1270" width="200" height="40" style="fill:white;stroke:black;stroke-width:1" /><text x="250" y="1280" font-size="10" style="fill:blue">xs:element</text><path d="M220 40 C240 40 220 1290 240 1290" style="fill:transparent;stroke:black" /><text x="250" y="1290" font-size="8" style="fill:black">name: patrocinador</text><text x="250" y="1300" font-size="8" style="fill:black">type: xs:string</text><rect x="240" y="1320" width="200" height="40" style="fill:white;stroke:black;stroke-width:1" /><text x="250" y="1330" font-size="10" style="fill:blue">xs:element</text><path d="M220 40 C240 40 220 1340 240 1340" style="fill:transparent;stroke:black" /><text x="250" y="1340" font-size="8" style="fill:black">name: longitudCircuito</text><rect x="460" y="1320" width="200" height="40" style="fill:white;stroke:black;stroke-width:1" /><text x="470" y="1330" font-size="10" style="fill:blue">xs:complexType</text><path d="M440 1340 C460 1340 440 1340 460 1340" style="fill:transparent;stroke:black" /><rect x="680" y="1320" width="200" height="40" style="fill:white;stroke:black;stroke-width:1" /><text x="690" y="1330" font-size="10" style="fill:blue">xs:simpleContent</text><path d="M660 1340 C680 1340 660 1340 680 1340" style="fill:transparent;stroke:black" /><rect x="900" y="1320" width="200" height="40" style="fill:white;stroke:black;stroke-width:1" /><text x="910" y="1330" font-size="10" style="fill:blue">xs:extension</text><path d="M880 1340 C900 1340 880 1340 900 1340" style="fill:transparent;stroke:black" /><text x="910" y="1340" font-size="8" style="fill:black">base: xs:double</text><rect x="1120" y="1320" width="200" height="40" style="fill:white;stroke:black;stroke-width:1" /><text x="1130" y="1330" font-size="10" style="fill:blue">xs:attribute</text><path d="M1100 1340 C1120 1340 1100 1340 1120 1340" style="fill:transparent;stroke:black" /><text x="1130" y="1340" font-size="8" style="fill:black">name: unidades</text><text x="1130" y="1350" font-size="8" style="fill:black">type: xs:string</text><text x="1130" y="1360" font-size="8" style="fill:black">use: required</text><rect x="240" y="1570" width="200" height="40" style="fill:white;stroke:black;stroke-width:1" /><text x="250" y="1580" font-size="10" style="fill:blue">xs:element</text><path d="M220 40 C240 40 220 1590 240 1590" style="fill:transparent;stroke:black" /><text x="250" y="1590" font-size="8" style="fill:black">name: anchuraMedia</text><rect x="460" y="1570" width="200" height="40" style="fill:white;stroke:black;stroke-width:1" /><text x="470" y="1580" font-size="10" style="fill:blue">xs:complexType</text><path d="M440 1590 C460 1590 440 1590 460 1590" style="fill:transparent;stroke:black" /><rect x="680" y="1570" width="200" height="40" style="fill:white;stroke:black;stroke-width:1" /><text x="690" y="1580" font-size="10" style="fill:blue">xs:simpleContent</text><path d="M660 1590 C680 1590 660 1590 680 1590" style="fill:transparent;stroke:black" /><rect x="900" y="1570" width="200" height="40" style="fill:white;stroke:black;stroke-width:1" /><text x="910" y="1580" font-size="10" style="fill:blue">xs:extension</text><path d="M880 1590 C900 1590 880 1590 900 1590" style="fill:transparent;stroke:black" /><text x="910" y="1590" font-size="8" style="fill:black">base: xs:double</text><rect x="1120" y="1570" width="200" height="40" style="fill:white;stroke:black;stroke-width:1" /><text x="1130" y="1580" font-size="10" style="fill:blue">xs:attribute</text><path d="M1100 1590 C1120 1590 1100 1590 1120 1590" style="fill:transparent;stroke:black" /><text x="1130" y="1590" font-size="8" style="fill:black">name: unidades</text><text x="1130" y="1600" font-size="8" style="fill:black">type: xs:string</text><text x="1130" y="1610" font-size="8" style="fill:black">use: required</text><rect x="240" y="1820" width="200" height="40" style="fill:white;stroke:black;stroke-width:1" /><text x="250" y="1830" font-size="10" style="fill:blue">xs:element</text><path d="M220 40 C240 40 220 1840 240 1840" style="fill:transparent;stroke:black" /><text x="250" y="1840" font-size="8" style="fill:black">name: referencias</text><rect x="460" y="1820" width="200" height="40" style="fill:white;stroke:black;stroke-width:1" /><text x="470" y="1830" font-size="10" style="fill:blue">xs:complexType</text><path d="M440 1840 C460 1840 440 1840 460 1840" style="fill:transparent;stroke:black" /><rect x="680" y="1820" width="200" height="40" style="fill:white;stroke:black;stroke-width:1" /><text x="690" y="1830" font-size="10" style="fill:blue">xs:sequence</text><path d="M660 1840 C680 1840 660 1840 680 1840" style="fill:transparent;stroke:black" /><rect x="900" y="1820" width="200" height="40" style="fill:white;stroke:black;stroke-width:1" /><text x="910" y="1830" font-size="10" style="fill:blue">xs:element</text><path d="M880 1840 C900 1840 880 1840 900 1840" style="fill:transparent;stroke:black" /><text x="910" y="1840" font-size="8" style="fill:black">minOccurs: 3</text><text x="910" y="1850" font-size="8" style="fill:black">maxOccurs: unbounded</text><text x="910" y="1860" font-size="8" style="fill:black">ref: referencia</text><rect x="240" y="2020" width="200" height="40" style="fill:white;stroke:black;stroke-width:1" /><text x="250" y="2030" font-size="10" style="fill:blue">xs:element</text><path d="M220 40 C240 40 220 2040 240 2040" style="fill:transparent;stroke:black" /><text x="250" y="2040" font-size="8" style="fill:black">name: referencia</text><text x="250" y="2050" font-size="8" style="fill:black">type: xs:string</text><rect x="240" y="2070" width="200" height="40" style="fill:white;stroke:black;stroke-width:1" /><text x="250" y="2080" font-size="10" style="fill:blue">xs:element</text><path d="M220 40 C240 40 220 2090 240 2090" style="fill:transparent;stroke:black" /><text x="250" y="2090" font-size="8" style="fill:black">name: foto</text><text x="250" y="2100" font-size="8" style="fill:black">type: xs:string</text><rect x="240" y="2120" width="200" height="40" style="fill:white;stroke:black;stroke-width:1" /><text x="250" y="2130" font-size="10" style="fill:blue">xs:element</text><path d="M220 40 C240 40 220 2140 240 2140" style="fill:transparent;stroke:black" /><text x="250" y="2140" font-size="8" style="fill:black">name: video</text><text x="250" y="2150" font-size="8" style="fill:black">type: xs:string</text><rect x="240" y="2170" width="200" height="40" style="fill:white;stroke:black;stroke-width:1" /><text x="250" y="2180" font-size="10" style="fill:blue">xs:element</text><path d="M220 40 C240 40 220 2190 240 2190" style="fill:transparent;stroke:black" /><text x="250" y="2190" font-size="8" style="fill:black">name: coordenadas</text><rect x="460" y="2170" width="200" height="40" style="fill:white;stroke:black;stroke-width:1" /><text x="470" y="2180" font-size="10" style="fill:blue">xs:complexType</text><path d="M440 2190 C460 2190 440 2190 460 2190" style="fill:transparent;stroke:black" /><rect x="680" y="2170" width="200" height="40" style="fill:white;stroke:black;stroke-width:1" /><text x="690" y="2180" font-size="10" style="fill:blue">xs:simpleContent</text><path d="M660 2190 C680 2190 660 2190 680 2190" style="fill:transparent;stroke:black" /><rect x="900" y="2170" width="200" height="40" style="fill:white;stroke:black;stroke-width:1" /><text x="910" y="2180" font-size="10" style="fill:blue">xs:extension</text><path d="M880 2190 C900 2190 880 2190 900 2190" style="fill:transparent;stroke:black" /><text x="910" y="2190" font-size="8" style="fill:black">base: xs:string</text><rect x="1120" y="2170" width="200" height="40" style="fill:white;stroke:black;stroke-width:1" /><text x="1130" y="2180" font-size="10" style="fill:blue">xs:attribute</text><path d="M1100 2190 C1120 2190 1100 2190 1120 2190" style="fill:transparent;stroke:black" /><text x="1130" y="2190" font-size="8" style="fill:black">name: longitud</text><text x="1130" y="2200" font-size="8" style="fill:black">use: required</text><rect x="1340" y="2170" width="200" height="40" style="fill:white;stroke:black;stroke-width:1" /><text x="1350" y="2180" font-size="10" style="fill:blue">xs:simpleType</text><path d="M1320 2190 C1340 2190 1320 2190 1340 2190" style="fill:transparent;stroke:black" /><rect x="1560" y="2170" width="200" height="40" style="fill:white;stroke:black;stroke-width:1" /><text x="1570" y="2180" font-size="10" style="fill:blue">xs:restriction</text><path d="M1540 2190 C1560 2190 1540 2190 1560 2190" style="fill:transparent;stroke:black" /><text x="1570" y="2190" font-size="8" style="fill:black">base: xs:double</text><rect x="1780" y="2170" width="200" height="40" style="fill:white;stroke:black;stroke-width:1" /><text x="1790" y="2180" font-size="10" style="fill:blue">xs:minInclusive</text><path d="M1760 2190 C1780 2190 1760 2190 1780 2190" style="fill:transparent;stroke:black" /><text x="1790" y="2190" font-size="8" style="fill:black">value: -180</text><rect x="1780" y="2220" width="200" height="40" style="fill:white;stroke:black;stroke-width:1" /><text x="1790" y="2230" font-size="10" style="fill:blue">xs:maxInclusive</text><path d="M1760 2190 C1780 2190 1760 2240 1780 2240" style="fill:transparent;stroke:black" /><text x="1790" y="2240" font-size="8" style="fill:black">value: 180</text><rect x="1120" y="2420" width="200" height="40" style="fill:white;stroke:black;stroke-width:1" /><text x="1130" y="2430" font-size="10" style="fill:blue">xs:attribute</text><path d="M1100 2190 C1120 2190 1100 2440 1120 2440" style="fill:transparent;stroke:black" /><text x="1130" y="2440" font-size="8" style="fill:black">name: latitud</text><text x="1130" y="2450" font-size="8" style="fill:black">use: required</text><rect x="1340" y="2420" width="200" height="40" style="fill:white;stroke:black;stroke-width:1" /><text x="1350" y="2430" font-size="10" style="fill:blue">xs:simpleType</text><path d="M1320 2440 C1340 2440 1320 2440 1340 2440" style="fill:transparent;stroke:black" /><rect x="1560" y="2420" width="200" height="40" style="fill:white;stroke:black;stroke-width:1" /><text x="1570" y="2430" font-size="10" style="fill:blue">xs:restriction</text><path d="M1540 2440 C1560 2440 1540 2440 1560 2440" style="fill:transparent;stroke:black" /><text x="1570" y="2440" font-size="8" style="fill:black">base: xs:double</text><rect x="1780" y="2420" width="200" height="40" style="fill:white;stroke:black;stroke-width:1" /><text x="1790" y="2430" font-size="10" style="fill:blue">xs:minInclusive</text><path d="M1760 2440 C1780 2440 1760 2440 1780 2440" style="fill:transparent;stroke:black" /><text x="1790" y="2440" font-size="8" style="fill:black">value: -90</text><rect x="1780" y="2470" width="200" height="40" style="fill:white;stroke:black;stroke-width:1" /><text x="1790" y="2480" font-size="10" style="fill:blue">xs:maxInclusive</text><path d="M1760 2440 C1780 2440 1760 2490 1780 2490" style="fill:transparent;stroke:black" /><text x="1790" y="2490" font-size="8" style="fill:black">value: 90</text><rect x="1120" y="2670" width="200" height="40" style="fill:white;stroke:black;stroke-width:1" /><text x="1130" y="2680" font-size="10" style="fill:blue">xs:attribute</text><path d="M1100 2190 C1120 2190 1100 2690 1120 2690" style="fill:transparent;stroke:black" /><text x="1130" y="2690" font-size="8" style="fill:black">name: altitud</text><text x="1130" y="2700" font-size="8" style="fill:black">use: required</text><rect x="1340" y="2670" width="200" height="40" style="fill:white;stroke:black;stroke-width:1" /><text x="1350" y="2680" font-size="10" style="fill:blue">xs:simpleType</text><path d="M1320 2690 C1340 2690 1320 2690 1340 2690" style="fill:transparent;stroke:black" /><rect x="1560" y="2670" width="200" height="40" style="fill:white;stroke:black;stroke-width:1" /><text x="1570" y="2680" font-size="10" style="fill:blue">xs:restriction</text><path d="M1540 2690 C1560 2690 1540 2690 1560 2690" style="fill:transparent;stroke:black" /><text x="1570" y="2690" font-size="8" style="fill:black">base: xs:double</text><rect x="1780" y="2670" width="200" height="40" style="fill:white;stroke:black;stroke-width:1" /><text x="1790" y="2680" font-size="10" style="fill:blue">xs:minInclusive</text><path d="M1760 2690 C1780 2690 1760 2690 1780 2690" style="fill:transparent;stroke:black" /><text x="1790" y="2690" font-size="8" style="fill:black">value: 0</text><rect x="1780" y="2720" width="200" height="40" style="fill:white;stroke:black;stroke-width:1" /><text x="1790" y="2730" font-size="10" style="fill:blue">xs:maxInclusive</text><path d="M1760 2690 C1780 2690 1760 2740 1780 2740" style="fill:transparent;stroke:black" /><text x="1790" y="2740" font-size="8" style="fill:black">value: 8000</text><rect x="240" y="3120" width="200" height="40" style="fill:white;stroke:black;stroke-width:1" /><text x="250" y="3130" font-size="10" style="fill:blue">xs:element</text><path d="M220 40 C240 40 220 3140 240 3140" style="fill:transparent;stroke:black" /><text x="250" y="3140" font-size="8" style="fill:black">name: tramos</text><rect x="460" y="3120" width="200" height="40" style="fill:white;stroke:black;stroke-width:1" /><text x="470" y="3130" font-size="10" style="fill:blue">xs:complexType</text><path d="M440 3140 C460 3140 440 3140 460 3140" style="fill:transparent;stroke:black" /><rect x="680" y="3120" width="200" height="40" style="fill:white;stroke:black;stroke-width:1" /><text x="690" y="3130" font-size="10" style="fill:blue">xs:sequence</text><path d="M660 3140 C680 3140 660 3140 680 3140" style="fill:transparent;stroke:black" /><rect x="900" y="3120" width="200" height="40" style="fill:white;stroke:black;stroke-width:1" /><text x="910" y="3130" font-size="10" style="fill:blue">xs:element</text><path d="M880 3140 C900 3140 880 3140 900 3140" style="fill:transparent;stroke:black" /><text x="910" y="3140" font-size="8" style="fill:black">minOccurs: 1</text><text x="910" y="3150" font-size="8" style="fill:black">maxOccurs: unbounded</text><text x="910" y="3160" font-size="8" style="fill:black">ref: tramo</text><rect x="240" y="3320" width="200" height="40" style="fill:white;stroke:black;stroke-width:1" /><text x="250" y="3330" font-size="10" style="fill:blue">xs:element</text><path d="M220 40 C240 40 220 3340 240 3340" style="fill:transparent;stroke:black" /><text x="250" y="3340" font-size="8" style="fill:black">name: tramo</text><rect x="460" y="3320" width="200" height="40" style="fill:white;stroke:black;stroke-width:1" /><text x="470" y="3330" font-size="10" style="fill:blue">xs:complexType</text><path d="M440 3340 C460 3340 440 3340 460 3340" style="fill:transparent;stroke:black" /><rect x="680" y="3320" width="200" height="40" style="fill:white;stroke:black;stroke-width:1" /><text x="690" y="3330" font-size="10" style="fill:blue">xs:sequence</text><path d="M660 3340 C680 3340 660 3340 680 3340" style="fill:transparent;stroke:black" /><rect x="900" y="3320" width="200" height="40" style="fill:white;stroke:black;stroke-width:1" /><text x="910" y="3330" font-size="10" style="fill:blue">xs:element</text><path d="M880 3340 C900 3340 880 3340 900 3340" style="fill:transparent;stroke:black" /><text x="910" y="3340" font-size="8" style="fill:black">ref: distancia</text><rect x="900" y="3370" width="200" height="40" style="fill:white;stroke:black;stroke-width:1" /><text x="910" y="3380" font-size="10" style="fill:blue">xs:element</text><path d="M880 3340 C900 3340 880 3390 900 3390" style="fill:transparent;stroke:black" /><text x="910" y="3390" font-size="8" style="fill:black">minOccurs: 1</text><text x="910" y="3400" font-size="8" style="fill:black">maxOccurs: unbounded</text><text x="910" y="3410" font-size="8" style="fill:black">ref: coordenadas</text><rect x="680" y="3470" width="200" height="40" style="fill:white;stroke:black;stroke-width:1" /><text x="690" y="3480" font-size="10" style="fill:blue">xs:attribute</text><path d="M660 3340 C680 3340 660 3490 680 3490" style="fill:transparent;stroke:black" /><text x="690" y="3490" font-size="8" style="fill:black">name: numSector</text><text x="690" y="3500" font-size="8" style="fill:black">type: xs:int</text><text x="690" y="3510" font-size="8" style="fill:black">use: required</text><rect x="240" y="3620" width="200" height="40" style="fill:white;stroke:black;stroke-width:1" /><text x="250" y="3630" font-size="10" style="fill:blue">xs:element</text><path d="M220 40 C240 40 220 3640 240 3640" style="fill:transparent;stroke:black" /><text x="250" y="3640" font-size="8" style="fill:black">name: distancia</text><rect x="460" y="3620" width="200" height="40" style="fill:white;stroke:black;stroke-width:1" /><text x="470" y="3630" font-size="10" style="fill:blue">xs:complexType</text><path d="M440 3640 C460 3640 440 3640 460 3640" style="fill:transparent;stroke:black" /><rect x="680" y="3620" width="200" height="40" style="fill:white;stroke:black;stroke-width:1" /><text x="690" y="3630" font-size="10" style="fill:blue">xs:simpleContent</text><path d="M660 3640 C680 3640 660 3640 680 3640" style="fill:transparent;stroke:black" /><rect x="900" y="3620" width="200" height="40" style="fill:white;stroke:black;stroke-width:1" /><text x="910" y="3630" font-size="10" style="fill:blue">xs:extension</text><path d="M880 3640 C900 3640 880 3640 900 3640" style="fill:transparent;stroke:black" /><text x="910" y="3640" font-size="8" style="fill:black">base: xs:double</text><rect x="1120" y="3620" width="200" height="40" style="fill:white;stroke:black;stroke-width:1" /><text x="1130" y="3630" font-size="10" style="fill:blue">xs:attribute</text><path d="M1100 3640 C1120 3640 1100 3640 1120 3640" style="fill:transparent;stroke:black" /><text x="1130" y="3640" font-size="8" style="fill:black">name: unidades</text><text x="1130" y="3650" font-size="8" style="fill:black">type: xs:string</text><text x="1130" y="3660" font-size="8" style="fill:black">use: required</text><rect x="240" y="3870" width="200" height="40" style="fill:white;stroke:black;stroke-width:1" /><text x="250" y="3880" font-size="10" style="fill:blue">xs:element</text><path d="M220 40 C240 40 220 3890 240 3890" style="fill:transparent;stroke:black" /><text x="250" y="3890" font-size="8" style="fill:black">name: victoria</text><rect x="460" y="3870" width="200" height="40" style="fill:white;stroke:black;stroke-width:1" /><text x="470" y="3880" font-size="10" style="fill:blue">xs:complexType</text><path d="M440 3890 C460 3890 440 3890 460 3890" style="fill:transparent;stroke:black" /><rect x="680" y="3870" width="200" height="40" style="fill:white;stroke:black;stroke-width:1" /><text x="690" y="3880" font-size="10" style="fill:blue">xs:simpleContent</text><path d="M660 3890 C680 3890 660 3890 680 3890" style="fill:transparent;stroke:black" /><rect x="900" y="3870" width="200" height="40" style="fill:white;stroke:black;stroke-width:1" /><text x="910" y="3880" font-size="10" style="fill:blue">xs:extension</text><path d="M880 3890 C900 3890 880 3890 900 3890" style="fill:transparent;stroke:black" /><text x="910" y="3890" font-size="8" style="fill:black">base: xs:string</text><rect x="1120" y="3870" width="200" height="40" style="fill:white;stroke:black;stroke-width:1" /><text x="1130" y="3880" font-size="10" style="fill:blue">xs:attribute</text><path d="M1100 3890 C1120 3890 1100 3890 1120 3890" style="fill:transparent;stroke:black" /><text x="1130" y="3890" font-size="8" style="fill:black">name: vencedor</text><text x="1130" y="3900" font-size="8" style="fill:black">type: xs:string</text><text x="1130" y="3910" font-size="8" style="fill:black">use: required</text><rect x="1120" y="3920" width="200" height="40" style="fill:white;stroke:black;stroke-width:1" /><text x="1130" y="3930" font-size="10" style="fill:blue">xs:attribute</text><path d="M1100 3890 C1120 3890 1100 3940 1120 3940" style="fill:transparent;stroke:black" /><text x="1130" y="3940" font-size="8" style="fill:black">name: tiempo</text><text x="1130" y="3950" font-size="8" style="fill:black">type: xs:duration</text><text x="1130" y="3960" font-size="8" style="fill:black">use: required</text><rect x="240" y="4170" width="200" height="40" style="fill:white;stroke:black;stroke-width:1" /><text x="250" y="4180" font-size="10" style="fill:blue">xs:element</text><path d="M220 40 C240 40 220 4190 240 4190" style="fill:transparent;stroke:black" /><text x="250" y="4190" font-size="8" style="fill:black">name: clasificados</text><rect x="460" y="4170" width="200" height="40" style="fill:white;stroke:black;stroke-width:1" /><text x="470" y="4180" font-size="10" style="fill:blue">xs:complexType</text><path d="M440 4190 C460 4190 440 4190 460 4190" style="fill:transparent;stroke:black" /><rect x="680" y="4170" width="200" height="40" style="fill:white;stroke:black;stroke-width:1" /><text x="690" y="4180" font-size="10" style="fill:blue">xs:sequence</text><path d="M660 4190 C680 4190 660 4190 680 4190" style="fill:transparent;stroke:black" /><rect x="900" y="4170" width="200" height="40" style="fill:white;stroke:black;stroke-width:1" /><text x="910" y="4180" font-size="10" style="fill:blue">xs:element</text><path d="M880 4190 C900 4190 880 4190 900 4190" style="fill:transparent;stroke:black" /><text x="910" y="4190" font-size="8" style="fill:black">minOccurs: 3</text><text x="910" y="4200" font-size="8" style="fill:black">maxOccurs: 3</text><text x="910" y="4210" font-size="8" style="fill:black">ref: clasificado</text><rect x="240" y="4370" width="200" height="40" style="fill:white;stroke:black;stroke-width:1" /><text x="250" y="4380" font-size="10" style="fill:blue">xs:element</text><path d="M220 40 C240 40 220 4390 240 4390" style="fill:transparent;stroke:black" /><text x="250" y="4390" font-size="8" style="fill:black">name: clasificado</text><text x="250" y="4400" font-size="8" style="fill:black">type: xs:string</text></svg>